<?xml version="1.0" encoding="utf-8"?>
<!-- Generator: Adobe Illustrator 17.0.0, SVG Export Plug-In . SVG Version: 6.00 Build 0)  -->
<!DOCTYPE svg PUBLIC "-//W3C//DTD SVG 1.1//EN" "http://www.w3.org/Graphics/SVG/1.1/DTD/svg11.dtd">
<svg version="1.1" id="Слой_1" xmlns="http://www.w3.org/2000/svg" x="0px" y="0px"
     width="176.315px" height="60.094px" viewBox="0 0 176.315 60.094" enable-background="new 0 0 176.315 60.094"
     xml:space="preserve">
<g>
	<path fill="none" stroke="#21A038" stroke-width="1.5" stroke-miterlimit="22.9256" d="M174.652,39.983H48.253V1.701h126.399
		V39.983z M23.235,29.644v7.19 M33.723,55.529v-7.801h23.454 M68.461,47.728h4.987v7.598L68.577,55.3 M29.42,48.973h4.303
		 M28.79,55.325h28.377 M17.785,55.495L5.036,54.56C2.453,54.37,1.851,50.57,1.703,48.43l2.129-0.625
		C3.583,38.681,3.445,25.762,8.372,17.8c4.184-6.755,8.139-8.851,18.974-8.851h14.13l0.004,21.58
		c0.002,4.165-6.111,6.944-8.807,8.405l-13.08,7.091 M3.854,47.73h9.846 M2.409,51.247h2.776 M7.224,44.104v-1.333 M7.224,37.984
		v-1.333 M7.224,41.044v-1.331 M31.407,39.616l3.179,3.525h3.764l3.952,4.588 M54.373,47.73l-4.516-5.344l0,0l10.504,0.012
		 M20.976,33.678v2.15 M66.227,51.655c0,1.89-1.544,3.423-3.45,3.423c-1.905,0-3.449-1.532-3.449-3.423
		c0-1.891,1.544-3.423,3.449-3.423C64.683,48.233,66.227,49.765,66.227,51.655z M69.562,51.657c0,3.718-3.038,6.732-6.785,6.732
		c-3.747,0-6.785-3.014-6.785-6.732c0-3.718,3.038-6.732,6.785-6.732C66.525,44.925,69.562,47.939,69.562,51.657z M140.999,51.655
		c0,1.89-1.544,3.423-3.45,3.423c-1.905,0-3.449-1.532-3.449-3.423c0-1.891,1.544-3.423,3.449-3.423
		C139.455,48.233,140.999,49.765,140.999,51.655z M144.335,51.657c0,3.718-3.038,6.732-6.785,6.732
		c-3.747,0-6.785-3.014-6.785-6.732c0-3.718,3.038-6.732,6.785-6.732C141.297,44.925,144.335,47.939,144.335,51.657z
		 M157.324,51.655c0,1.89-1.544,3.423-3.45,3.423c-1.905,0-3.449-1.532-3.449-3.423c0-1.891,1.544-3.423,3.449-3.423
		C155.78,48.233,157.324,49.765,157.324,51.655z M160.66,51.657c0,3.718-3.038,6.732-6.785,6.732c-3.747,0-6.785-3.014-6.785-6.732
		c0-3.718,3.038-6.732,6.785-6.732C157.622,44.925,160.66,47.939,160.66,51.657z M6.695,21.52
		c4.691-0.721,18.882-1.052,21.831-1.113c1.175-0.025,1.829,0.076,1.736,1.046c-0.372,3.84-0.756,6.648-5.792,8.011
		c-3.996,1.082-15.038,1.631-19.734,1.599 M30.094,51.662c0,3.718-3.038,6.732-6.785,6.732c-3.747,0-6.785-3.014-6.785-6.732
		s3.038-6.732,6.785-6.732C27.056,44.93,30.094,47.943,30.094,51.662z M26.758,51.659c0,1.891-1.544,3.423-3.45,3.423
		c-1.905,0-3.45-1.532-3.45-3.423c0-1.89,1.545-3.423,3.45-3.423C25.214,48.237,26.758,49.769,26.758,51.659z M78.309,40.063v9.991
		h52.328 M160.629,50.054h12.792v-9.991 M144.126,50.054h2.944 M47.408,47.949v7.386 M9.419,21.21l-0.749,3.211l-1.404,2.296"/>
	<g>
		<g>
			<path fill="#21A038" d="M106.327,19.104h-2.71l-0.021,0.336c-0.285,5.186-1.192,5.716-2.231,5.716
				c-0.224,0-0.418-0.03-0.57-0.102V23.77c0.102,0.041,0.214,0.051,0.306,0.051c0.489,0,1.07-0.306,1.273-4.412l0.072-1.478h5.155
				v7.133h-1.273V19.104z"/>
			<path fill="#21A038" d="M112.766,17.82c2.292,0.01,3.821,1.386,3.821,3.688c0,2.15-1.498,3.668-3.821,3.668
				c-2.292,0-3.821-1.376-3.821-3.688C108.945,19.338,110.443,17.82,112.766,17.82 M112.776,24.005c1.518,0,2.466-1.009,2.466-2.507
				c0-1.396-0.856-2.496-2.486-2.506c-1.528,0.01-2.466,1.019-2.466,2.506C110.29,22.894,111.146,23.995,112.776,24.005"/>
			<polygon fill="#21A038" points="122.762,19.104 119.196,19.104 119.196,25.064 117.922,25.064 117.922,17.932 122.762,17.932 			
				"/>
			<polygon fill="#21A038" points="125.157,23.261 129.049,17.932 130.435,17.932 130.435,25.064 129.161,25.064 129.161,19.654 
				125.248,25.064 123.883,25.064 123.883,17.932 125.157,17.932 			"/>
			<path fill="#21A038" d="M138.179,24.28c-0.357,0.428-1.294,0.897-2.527,0.897c-2.323-0.01-3.872-1.386-3.872-3.688
				c0-2.15,1.528-3.668,3.892-3.668c1.121,0,1.946,0.346,2.364,0.642v1.773c-0.428-0.632-1.294-1.243-2.364-1.243
				c-1.559,0-2.517,1.008-2.517,2.506c0,1.386,0.846,2.476,2.486,2.507c1.243,0,2.12-0.571,2.537-1.294V24.28z"/>
			<polygon fill="#21A038" points="144.781,19.104 142.377,19.104 142.377,25.064 141.103,25.064 141.103,19.104 138.739,19.104 
				138.739,17.932 144.781,17.932 			"/>
			<polygon fill="#21A038" points="147.125,23.261 151.017,17.932 152.403,17.932 152.403,25.064 151.129,25.064 151.129,19.654 
				147.216,25.064 145.851,25.064 145.851,17.932 147.125,17.932 			"/>
			<polygon fill="#21A038" points="155.531,25.064 154.258,25.064 154.258,17.932 155.531,17.932 155.531,20.928 156.601,20.928 
				158.893,17.932 160.442,17.932 157.722,21.325 160.88,25.064 159.25,25.064 156.662,21.977 155.531,21.977 			"/>
			<path fill="#21A038" d="M165.496,17.932l2.934,7.132h-1.355l-0.683-1.691h-3.271l-0.672,1.691h-1.294l2.894-7.132H165.496z
				 M163.581,22.201h2.344l-1.172-2.924L163.581,22.201z"/>
		</g>
		<g>
			<g>
				<g>
					<g>
						<polygon fill="#21A038" points="89.207,19.119 90.818,17.932 85.425,17.932 85.425,25.064 90.818,25.064 90.818,23.877 
							86.964,23.877 86.964,22.051 90.251,22.051 90.251,20.863 86.964,20.863 86.964,19.119 						"/>
						<g>
							<path fill="#21A038" d="M81.354,20.712h-1.873v-1.593h2.99l1.611-1.188h-6.14v7.133h3.213c1.802,0,2.836-0.817,2.836-2.241
								C83.992,21.462,83.055,20.712,81.354,20.712z M81.086,23.877h-1.605V21.9h1.605c0.977,0,1.432,0.331,1.432,0.989
								C82.518,23.56,82.037,23.877,81.086,23.877z"/>
						</g>
						<path fill="#21A038" d="M95.187,17.932h-2.936v7.132h1.539v-2.02h1.397c1.874,0,3.038-0.985,3.038-2.56
							C98.225,18.91,97.061,17.932,95.187,17.932z M95.154,21.857H93.79v-2.737h1.364c0.986,0,1.529,0.486,1.529,1.369
							S96.14,21.857,95.154,21.857z"/>
						<g>
							<path fill="#21A038" d="M75.301,23.52c-0.395,0.218-0.854,0.333-1.329,0.333c-1.388,0-2.395-0.99-2.395-2.355
								c0-1.365,1.007-2.355,2.395-2.355c0.525,0,0.995,0.148,1.4,0.438l1.104-0.814l0,0l-0.073-0.064
								c-0.645-0.566-1.506-0.865-2.49-0.865c-1.068,0-2.037,0.36-2.729,1.014c-0.696,0.658-1.079,1.584-1.079,2.606
								c0,1.028,0.382,1.967,1.076,2.645c0.696,0.68,1.663,1.055,2.723,1.055c1.109,0,2.078-0.387,2.735-1.091
								c-0.507-0.373-0.996-0.734-0.996-0.734L75.301,23.52z"/>
						</g>
					</g>
				</g>
			</g>
			<path fill="#21A038" d="M66.537,21.498c0-0.362-0.033-0.717-0.095-1.062l-1.276,0.94c0.001,0.04,0.002,0.081,0.002,0.122
				c0,2.513-2.045,4.558-4.558,4.558c-2.513,0-4.558-2.045-4.558-4.558s2.045-4.558,4.558-4.558c0.952,0,1.837,0.294,2.569,0.795
				l1.153-0.85c-1.017-0.822-2.312-1.315-3.722-1.315c-3.273,0-5.927,2.654-5.927,5.927s2.654,5.927,5.927,5.927
				C63.884,27.425,66.537,24.771,66.537,21.498z M65.301,17.875c0.28,0.362,0.519,0.757,0.71,1.178l-5.4,3.98l-2.256-1.415v-1.702
				l2.256,1.414L65.301,17.875z"/>
		</g>
	</g>
</g>
</svg>
