<?xml version="1.0" encoding="UTF-8"?>
<svg width="18px" height="18px" viewBox="0 0 18 18" version="1.1" xmlns="http://www.w3.org/2000/svg">
    <g id="Page-1" stroke="none" stroke-width="1" fill="none" fill-rule="evenodd">
        <g id="04-03-01" transform="translate(-541.000000, -231.000000)" fill="#BBC1C5">
            <g id="Group-5" transform="translate(252.000000, 228.000000)">
                <g id="Group-6">
                    <g id="Icon/20x20/adduser" transform="translate(287.000000, 2.000000)">
                        <g id="noun_Add-User_665158" transform="translate(2.000000, 1.000000)">
                            <path d="M15.7857676,6.5148933 L17.1646218,6.5148933 C17.6259884,6.5148933 18,6.88768809 18,7.34755375 L18,7.34755375 C18,7.56838903 17.9119872,7.78017948 17.7553234,7.9363336 C17.5986596,8.09248773 17.3861779,8.1802142 17.1646218,8.1802142 L15.7857676,8.1802142 L15.7857676,9.55458248 C15.7857676,10.0144482 15.4117561,10.3872429 14.9503894,10.3872429 C14.4890228,10.3872429 14.1150112,10.0144482 14.1150112,9.55458248 L14.1150112,8.1802142 L12.736157,8.1802142 C12.2747904,8.1802142 11.9007788,7.80741942 11.9007788,7.34755375 C11.9007788,6.88768809 12.2747904,6.5148933 12.736157,6.5148933 L14.1150112,6.5148933 L14.1150112,5.14052502 C14.1150112,4.68065936 14.4890228,4.30786457 14.9503894,4.30786457 C15.4117561,4.30786457 15.7857676,4.68065936 15.7857676,5.14052502 L15.7857676,6.5148933 Z M0.971727302,17.999934 L12.7303958,17.999934 C13.2607023,17.999934 13.6906007,17.5713653 13.6906007,17.042784 L13.6906007,14.7936437 C13.6895738,12.0359989 12.0221066,9.55048998 9.46569935,8.49605092 C11.1602178,7.34918736 11.9059127,5.23468881 11.3040374,3.28324438 C10.7021621,1.33179994 8.89354079,0 6.84530033,0 C4.79705988,0 2.98843856,1.33179994 2.38656328,3.28324438 C1.78468799,5.23468881 2.53038286,7.34918736 4.22490131,8.49605092 C1.66849408,9.55048998 0.00102683138,12.0359989 0,14.7936437 L0,17.042784 C0,17.2986202 0.10272584,17.5438143 0.285298996,17.7236356 C0.467872151,17.9034569 0.7150746,18.002935 0.971727302,17.999934 L0.971727302,17.999934 Z" id="Shape" fill-rule="nonzero"></path>
                        </g>
                    </g>
                </g>
            </g>
        </g>
    </g>
</svg>
