<?xml version="1.0" encoding="UTF-8"?>
<svg width="20px" height="20px" viewBox="0 0 20 20" version="1.1" xmlns="http://www.w3.org/2000/svg">
    <g id="Icon/20x20/Add_green" stroke="none" stroke-width="1" fill="none" fill-rule="evenodd">
        <g id="noun_add_929467" transform="translate(1.000000, 1.000000)" fill="#17BB4F" fill-rule="nonzero">
            <path d="M15.6747788,2.6880531 C12.090708,-0.896017699 6.27212389,-0.896017699 2.6880531,2.6880531 C-0.896017699,6.27212389 -0.896017699,12.090708 2.6880531,15.6747788 C6.27212389,19.2588496 12.090708,19.2588496 15.6747788,15.6747788 C19.2588496,12.090708 19.2588496,6.25 15.6747788,2.6880531 Z M13.3517699,9.70132743 C13.2190265,9.8340708 13.0199115,9.92256637 12.8207965,9.92256637 L9.94469027,9.92256637 L9.94469027,12.7986726 C9.94469027,12.9977876 9.85619469,13.1969027 9.72345133,13.329646 C9.59070796,13.4623894 9.39159292,13.550885 9.19247788,13.550885 C8.77212389,13.550885 8.44026549,13.2190265 8.44026549,12.7986726 L8.44026549,9.92256637 L5.56415929,9.92256637 C5.14380531,9.92256637 4.8119469,9.59070796 4.8119469,9.17035398 C4.8119469,8.75 5.14380531,8.41814159 5.56415929,8.41814159 L8.44026549,8.41814159 L8.44026549,5.5420354 C8.44026549,5.12168142 8.77212389,4.78982301 9.19247788,4.78982301 L9.19247788,4.78982301 C9.61283186,4.78982301 9.94469027,5.12168142 9.94469027,5.5420354 L9.94469027,8.41814159 L12.8207965,8.41814159 C13.2411504,8.41814159 13.5730088,8.75 13.5730088,9.17035398 C13.550885,9.36946903 13.4845133,9.56858407 13.3517699,9.70132743 Z" id="Shape"></path>
        </g>
    </g>
</svg>
