<?xml version="1.0" encoding="utf-8"?>
<!-- Generator: Adobe Illustrator 22.1.0, SVG Export Plug-In . SVG Version: 6.00 Build 0)  -->
<svg version="1.1" id="Слой_1" xmlns="http://www.w3.org/2000/svg" x="0px" y="0px"
     width="15px" height="17px" viewBox="0 0 15 17" enable-background="new 0 0 15 17" xml:space="preserve">
<g id="noun_Address-Book_1484774" transform="translate(3.000000, 2.000000)">
	<g id="Group">
		<path id="Shape" fill="none" d="M9.7-2H0.3C-1-2-2.1-1-2.1,0.4v0.9h-0.5C-2.8,1.3-3,1.5-3,1.8s0.2,0.5,0.5,0.5h0.5V6h-0.5
			C-2.8,6-3,6.2-3,6.5S-2.8,7-2.5,7h0.5v3.8h-0.5c-0.3,0-0.5,0.2-0.5,0.5c0,0.3,0.2,0.5,0.5,0.5h0.5v0.9c0,1.3,1,2.4,2.3,2.4h9.4
			c1.3,0,2.3-1,2.3-2.4V0.4C12-1,11-2,9.7-2z M11.1,12.6c0,0.8-0.6,1.4-1.4,1.4H0.3c-0.8,0-1.4-0.6-1.4-1.4v-0.9h0.5
			c0.3,0,0.5-0.2,0.5-0.5c0-0.3-0.2-0.5-0.5-0.5h-0.5V7h0.5c0.3,0,0.5-0.2,0.5-0.5S-0.4,6-0.7,6h-0.5V2.2h0.5c0.3,0,0.5-0.2,0.5-0.5
			s-0.2-0.5-0.5-0.5h-0.5V0.4c0-0.8,0.6-1.4,1.4-1.4h9.4c0.8,0,1.4,0.6,1.4,1.4V12.6z" class="menu-icon icon-filled"/>
		<path id="Shape_1_" fill="#4A4A4A" d="M5,6.9c0.6,0,1.1-0.2,1.5-0.7c0.9-0.9,0.8-2.6,0.8-2.6c0-1.3-1-2.4-2.3-2.4
			c-1.3,0-2.3,1-2.3,2.3c0,0-0.1,1.7,0.8,2.7C3.8,6.7,4.4,6.9,5,6.9z M3.6,3.7c0-0.8,0.6-1.4,1.4-1.4s1.4,0.6,1.4,1.4
			c0,0.4,0,1.4-0.5,2C5.6,5.9,5.3,6,5,6C4.6,6,4.4,5.9,4.2,5.7C3.6,5.1,3.6,4,3.6,3.7z"/>
		<path id="Shape_2_" fill="#4A4A4A" d="M5.1,7.4H4.9c-1.5,0-3.7,1-3.7,2.8c0,0.6,0.4,1,0.9,1h5.8c0.5,0,0.9-0.4,0.9-1
			C8.7,8.5,6.6,7.4,5.1,7.4z M7.8,10.3H2.2c0,0,0,0,0-0.1c0-1,1.6-1.8,2.7-1.8h0.2C6.1,8.4,7.8,9.1,7.8,10.3L7.8,10.3z"/>
	</g>
</g>
</svg>
