<?xml version="1.0" encoding="UTF-8"?>
<svg width="20px" height="20px" viewBox="0 0 20 20" version="1.1" xmlns="http://www.w3.org/2000/svg">
    <g id="Icon/20x20/Menu/archive-Copy" stroke="none" stroke-width="1" fill="none" fill-rule="evenodd">
        <g id="Group" transform="translate(0.000000, 1.000000)">
            <path d="M1.28233971,19 L18.6951631,19 L20,5.67330211 L18.087739,5.67330211 L18.5376828,2.82552693 L16.1079865,2.82552693 L16.5579303,0 L3.41957255,0 L3.86951631,2.82552693 L1.43982002,2.82552693 L1.88976378,5.69555035 L0,5.69555035 L1.28233971,19 Z M17.0528684,17.2201405 L2.92463442,17.2201405 L1.97975253,7.47540984 L17.9977503,7.47540984 L17.0528684,17.2201405 Z M5.53430821,1.77985948 L14.4431946,1.77985948 L14.2857143,2.82552693 L5.69178853,2.82552693 L5.53430821,1.77985948 Z M3.53205849,4.60538642 L16.4454443,4.60538642 L16.2654668,5.69555035 L3.712036,5.69555035 L3.53205849,4.60538642 Z" id="Shape" class="menu-icon icon-filled" fill-rule="nonzero" />
            <rect id="Rectangle" fill="#4A4A4A" x="7" y="10" width="6" height="1" />
        </g>
    </g>
</svg>
