<svg width="24px" height="24px" viewBox="0 0 24 24" version="1.1" xmlns="http://www.w3.org/2000/svg">
    <g stroke="none" stroke-width="1" fill="none" fill-rule="evenodd">
        <g transform="translate(-733.000000, -412.000000)" fill="#0AA63F" fill-rule="nonzero">
            <g transform="translate(647.000000, 180.000000)">
                <g transform="translate(86.000000, 232.000000)">
                    <g>
                        <path d="M12,0 C18.627417,0 24,5.372583 24,12 C24,18.627417 18.627417,24 12,24 C5.372583,24 0,18.627417 0,12 C0,5.372583 5.372583,0 12,0 Z M7.3629229,11.1515524 C7.1412418,11.3349738 7,11.6121863 7,11.9223883 C7,11.9259254 7,11.9294669 7,11.9330127 C7,12.2387329 7.1371906,12.5124106 7.3533664,12.6958405 L10.9971924,16.6935348 C11.3877167,17.0840591 12.0208817,17.0840591 12.4114059,16.6935348 C12.8019302,16.3030106 12.8019302,15.6698456 12.4114059,15.2793213 L10.2727882,12.9330127 L16,12.9330127 C16.5522847,12.9330127 17,12.4852974 17,11.9330127 C17,11.9294669 17,11.9259254 17,11.9223877 C17,11.3701029 16.5522847,10.9223877 16,10.9223877 L10.3249486,10.9223877 L12.4114059,8.7071068 C12.8019302,8.3165825 12.8019302,7.6834175 12.4114059,7.2928932 C12.0208817,6.9023689 11.3877167,6.9023689 10.9971924,7.2928932 L7.3629229,11.1515524 Z" id="Combined-Shape"></path>
                    </g>
                </g>
            </g>
        </g>
    </g>
</svg>
