<?xml version="1.0" encoding="UTF-8"?>
<svg width="20px" height="20px" viewBox="0 0 20 20" version="1.1" xmlns="http://www.w3.org/2000/svg">
    <g id="Icon/20x20/block" stroke="none" stroke-width="1" fill="none" fill-rule="evenodd">
        <g id="noun_block_1957724" transform="translate(0.000000, 0.500000)" fill="#BBC1C5" fill-rule="nonzero">
            <path d="M15.1747285,4.44619941 C15.4254689,4.69891412 15.6623889,4.96544916 15.8795656,5.24777887 C15.8183613,5.16880553 15.7551826,5.08785785 15.6939783,5.0088845 C16.1263574,5.5715696 16.4876604,6.18558736 16.7640671,6.83909181 C16.7245805,6.74432379 16.6850938,6.64955577 16.6456071,6.55676209 C16.9318855,7.23790721 17.1273445,7.95261599 17.2260612,8.68509378 C17.2122409,8.5804541 17.1984205,8.47581441 17.1846002,8.36920039 C17.2813425,9.10562685 17.2813425,9.85192498 17.1846002,10.5863771 C17.1984205,10.4817374 17.2122409,10.3770977 17.2260612,10.2704837 C17.1273445,11.0029615 16.9318855,11.7176703 16.6456071,12.3988154 C16.6850938,12.3040474 16.7245805,12.2092794 16.7640671,12.1164857 C16.4856861,12.7699901 16.1263574,13.3840079 15.6939783,13.946693 C15.7551826,13.8677196 15.8183613,13.786772 15.8795656,13.7077986 C15.4432379,14.2704837 14.9358342,14.7778875 14.3731491,15.2142152 C14.4521224,15.1530109 14.5330701,15.0898322 14.6120434,15.0286278 C14.0493583,15.4610069 13.4353406,15.82231 12.7818361,16.0987167 C12.8766041,16.05923 12.9713722,16.0197433 13.0641658,15.9802567 C12.3830207,16.266535 11.6683119,16.4619941 10.9358342,16.5607108 C11.0404738,16.5468904 11.1451135,16.5330701 11.2517275,16.5192498 C10.5153011,16.6159921 9.76900296,16.6159921 9.03455084,16.5192498 C9.13919052,16.5330701 9.24383021,16.5468904 9.35044423,16.5607108 C8.61796644,16.4619941 7.90325765,16.266535 7.22211254,15.9802567 C7.31688055,16.0197433 7.41164857,16.05923 7.50444225,16.0987167 C6.85093781,15.8203356 6.23692004,15.4610069 5.67423495,15.0286278 C5.75320829,15.0898322 5.83415597,15.1530109 5.91312932,15.2142152 C5.35044423,14.7778875 4.84304047,14.2704837 4.40671273,13.7077986 C4.46791708,13.786772 4.53109576,13.8677196 4.5923001,13.946693 C4.15992103,13.3840079 3.79861797,12.7699901 3.52221125,12.1164857 C3.56169793,12.2112537 3.6011846,12.3060217 3.64067127,12.3988154 C3.35439289,11.7176703 3.15893386,11.0029615 3.06021718,10.2704837 C3.07403751,10.3751234 3.08785785,10.4797631 3.10167818,10.5863771 C3.00493583,9.84995064 3.00493583,9.10365252 3.10167818,8.36920039 C3.08785785,8.47384008 3.07403751,8.57847976 3.06021718,8.68509378 C3.15893386,7.95261599 3.35439289,7.23790721 3.64067127,6.55676209 C3.6011846,6.65153011 3.56169793,6.74629812 3.52221125,6.83909181 C3.8005923,6.18558736 4.15992103,5.5715696 4.5923001,5.0088845 C4.53109576,5.08785785 4.46791708,5.16880553 4.40671273,5.24777887 C4.84304047,4.68509378 5.35044423,4.17769003 5.91312932,3.74136229 C5.83415597,3.80256663 5.75320829,3.86574531 5.67423495,3.92694965 C6.23692004,3.49457058 6.85093781,3.13326752 7.50444225,2.85686081 C7.40967423,2.89634748 7.31490622,2.93583416 7.22211254,2.97532083 C7.90325765,2.68904245 8.61796644,2.49358342 9.35044423,2.39486673 C9.24580454,2.40868707 9.14116486,2.4225074 9.03455084,2.43632774 C9.7709773,2.33958539 10.5172754,2.33958539 11.2517275,2.43632774 C11.1470879,2.4225074 11.0424482,2.40868707 10.9358342,2.39486673 C11.6683119,2.49358342 12.3830207,2.68904245 13.0641658,2.97532083 C12.9693978,2.93583416 12.8746298,2.89634748 12.7818361,2.85686081 C13.4353406,3.13524186 14.0493583,3.49457058 14.6120434,3.92694965 C14.5330701,3.86574531 14.4521224,3.80256663 14.3731491,3.74136229 C14.6554788,3.95853899 14.9239882,4.19545903 15.1747285,4.44619941 C15.3899309,4.66140178 15.7077986,4.79368213 16.011846,4.79368213 C16.3020731,4.79368213 16.6495558,4.66535044 16.8489635,4.44619941 C17.0562685,4.22112537 17.2102665,3.92497532 17.1964462,3.60908193 C17.1826259,3.29516288 17.0760118,2.9970385 16.8489635,2.77196446 C16.1638697,2.08884501 15.3662389,1.49457058 14.5054294,1.05626851 C13.6663376,0.629812438 12.7660415,0.306021718 11.8361303,0.152023692 C10.9042448,-0.00394866732 9.97235933,-0.0533070089 9.03455084,0.0691016782 C8.51332675,0.138203356 8,0.223099704 7.49457058,0.371174729 C7.00098717,0.515301086 6.52122409,0.708785785 6.05528134,0.923988154 C5.18065153,1.32872655 4.37314906,1.89536032 3.66831194,2.55083909 C2.95557749,3.21026654 2.33761106,4 1.86574531,4.84698914 C1.4076999,5.66831194 1.06021718,6.57058243 0.870681145,7.49259625 C0.683119447,8.4106614 0.608094768,9.35834156 0.698914116,10.2922014 C0.791707799,11.2359329 0.989141165,12.1559724 1.35636723,13.0325765 C1.55774926,13.5123396 1.77492596,13.9802567 2.04738401,14.4244817 C2.32773939,14.8805528 2.65350444,15.3109576 3.0029615,15.7176703 C3.63869694,16.4580454 4.41263574,17.0977295 5.24580454,17.6031589 C5.69200395,17.8736426 6.15992103,18.0868707 6.64165844,18.2862784 C7.03455084,18.4481737 7.43928924,18.5824284 7.84995064,18.6831194 C8.75222113,18.9042448 9.70187562,19.0029615 10.6298124,18.9496545 C11.5676209,18.8943731 12.5074038,18.7206318 13.3879566,18.3889437 C13.8795656,18.2033564 14.3652517,17.9901283 14.8232971,17.7314906 C15.2813425,17.4728529 15.7018756,17.1648569 16.1145114,16.8390918 C16.8864758,16.230997 17.5419546,15.4807502 18.0848963,14.6633761 C18.6080948,13.875617 19.0069102,12.9871668 19.2655479,12.076999 C19.4096742,11.5715696 19.4925962,11.0582428 19.5597236,10.5370188 C19.6130306,10.124383 19.6347483,9.70779862 19.6248766,9.29121422 C19.6031589,8.35735439 19.4511352,7.40572557 19.1530109,6.51924975 C18.8489635,5.61500494 18.4244817,4.74432379 17.8598223,3.97433366 C17.5498519,3.55182626 17.2201382,3.14511352 16.8489635,2.7739388 C16.6337611,2.55873643 16.3139191,2.42645607 16.011846,2.42645607 C15.721619,2.42645607 15.3741362,2.55478776 15.1747285,2.7739388 C14.9674235,2.99901283 14.8134255,3.29516288 14.8272458,3.61105627 C14.8430405,3.92300099 14.9496545,4.21915104 15.1747285,4.44619941 Z" id="Path"></path>
            <path d="M5.11352419,16.183613 C5.21816387,16.0789733 5.32280355,15.9743337 5.4254689,15.8716683 C5.70977295,15.5873643 5.99605133,15.3010859 6.28035538,15.0167818 C6.70088845,14.5962488 7.12142152,14.1757157 7.54195459,13.7551826 C8.05725568,13.2398815 8.57255676,12.7245805 9.08588351,12.2112537 C9.64856861,11.6485686 10.2092794,11.0878578 10.7719645,10.5251728 C11.3385982,9.95853899 11.905232,9.39190523 12.4738401,8.82329714 C13.0049358,8.29220138 13.5360316,7.76110563 14.0671273,7.23000987 C14.5133268,6.78381046 14.9615005,6.33563672 15.4076999,5.88943731 C15.7295163,5.56762093 16.053307,5.24383021 16.3751234,4.92201382 C16.5271471,4.76999013 16.6811451,4.61994077 16.8311945,4.46594274 C16.8371175,4.46001974 16.8450148,4.45212241 16.8509378,4.44619941 C17.0661402,4.23099704 17.1984205,3.91312932 17.1984205,3.60908193 C17.1984205,3.31885489 17.0700888,2.97137216 16.8509378,2.77196446 C16.6258638,2.56465943 16.3297137,2.4106614 16.0138203,2.42448174 C15.6999013,2.43830207 15.4037512,2.54491609 15.1767029,2.77196446 C15.0720632,2.87660415 14.9674235,2.98124383 14.8647581,3.08390918 C14.5804541,3.36821323 14.2941757,3.65449161 14.0098717,3.93879566 C13.5893386,4.35932873 13.1688055,4.7798618 12.7482725,5.20039487 C12.2329714,5.71569595 11.7176703,6.23099704 11.2043435,6.74432379 C10.6416584,7.30700888 10.0809477,7.86771964 9.51826259,8.43040474 C8.95162883,8.9970385 8.38499506,9.56367226 7.81638697,10.1322804 C7.28529121,10.6633761 6.75419546,11.1944719 6.2230997,11.7255676 C5.7769003,12.171767 5.32872655,12.6199408 4.88252715,13.0661402 C4.56071076,13.3879566 4.23692004,13.7117473 3.91510365,14.0335637 C3.76307996,14.1855874 3.60908193,14.3356367 3.45903258,14.4896347 C3.45310958,14.4955577 3.44521224,14.5034551 3.43928924,14.5093781 C3.22408687,14.7245805 3.09180652,15.0424482 3.09180652,15.3464956 C3.09180652,15.6367226 3.2201382,15.9842053 3.43928924,16.183613 C3.66436328,16.3909181 3.96051333,16.5449161 4.27640671,16.5310958 C4.59032577,16.5153011 4.88647581,16.4086871 5.11352419,16.183613 L5.11352419,16.183613 Z" id="Path"></path>
        </g>
    </g>
</svg>
