<?xml version="1.0" encoding="UTF-8"?>
<svg width="20px" height="20px" viewBox="0 0 20 20" version="1.1" xmlns="http://www.w3.org/2000/svg">
    <g id="Icon/20x20/Cancel" stroke="none" stroke-width="1" fill="none" fill-rule="evenodd">
        <g id="noun_Delete_5806" transform="translate(5.000000, 5.000000)" fill="#BBC1C5">
            <path d="M6.53161218,4.79260676 L9.25893299,2.06523169 C9.64032714,1.68389179 9.64032714,1.06557755 9.25893299,0.6841834 C8.8778101,0.302843502 8.25927885,0.302843502 7.8779932,0.6841834 L5.15061814,3.41155847 L2.42324307,0.684129148 C2.04190317,0.30278925 1.42364318,0.30278925 1.04219478,0.684129148 C0.660854882,1.06546905 0.660854882,1.68378329 1.04219478,2.06517744 L3.76956985,4.79255251 L1.04219478,7.51992757 C0.660854882,7.90115897 0.660854882,8.51958171 1.04219478,8.90081311 C1.23289185,9.09167294 1.48277826,9.18683159 1.73271893,9.18683159 C1.98260533,9.18683159 2.232546,9.09145593 2.42324307,8.90081311 L5.15061814,6.17349229 L7.87793895,8.90081311 C8.06863603,9.09167294 8.31835968,9.18683159 8.5684631,9.18683159 C8.81834951,9.18683159 9.06834442,9.09145593 9.25898724,8.90081311 C9.64032714,8.51958171 9.64038139,7.90115897 9.25898724,7.51992757 L6.53161218,4.79260676 Z" id="Path"></path>
        </g>
    </g>
</svg>
