<svg width="20" height="20" viewBox="0 -1 20 20" className="svg-icon">
    <path
        className="secondary-fill"
        fill="#4a4a4a"
        d="M9.16497395,15.7430468 L9.16497395,9.16805353 C9.16497395,8.70793334 9.53797506,8.33493223 9.99809524,8.33493223 C10.4582154,8.33493223 10.8312165,8.70793334 10.8312165,9.16805353 L10.8312165,15.7430468 L12.9806695,14.2909164 C13.1642986,14.1700457 13.3924763,14.1379567 13.6023201,14.2034925 C13.8121639,14.2690284 13.981524,14.4252715 14.0637272,14.6291636 C14.2847699,15.0658155 14.1620528,15.5980571 13.7721347,15.8938418 L10.4164033,18.0569181 C10.1853782,18.205835 9.81606548,18.2089398 9.57978715,18.0562717 L6.22405576,15.8880099 C5.83413769,15.5922252 5.71142059,15.0599836 5.93246331,14.6233318 C6.01586365,14.4204412 6.18573244,14.2655556 6.39544049,14.2011914 C6.60514854,14.1368271 6.83265937,14.1697477 7.01552099,14.2909164 L9.16497395,15.7430468 Z" />
    <path
        className="primary-fill"
        fill="rgba(167, 175, 180, 0.8)"
        d="M16.6630656,13.7352245 L16.6630656,11.5741078 C18.435076,9.77236508 18.8423691,7.03319542 17.6712398,4.79383081 C16.5001104,2.55446621 14.0180357,1.32636067 11.5273508,1.75389653 C9.03666599,2.18143239 7.10622469,4.16696367 6.74892218,6.66868963 L4.99936745,6.66868963 C3.49275256,6.66425417 2.17173708,7.67414772 1.78086155,9.12918189 C1.38998602,10.5842161 2.02710271,12.1201357 3.33312486,12.8712777 L3.33312486,14.6941471 C1.03817941,13.8871193 -0.339613706,11.5420278 0.072581401,9.144495 C0.484776508,6.74696216 2.56666624,4.99667566 4.99936745,5.00244703 C5.14099807,5.00244703 5.28262869,5.0324394 5.4159281,5.04493622 C6.48496858,1.95726209 9.43043176,-0.082611033 12.6968248,0.00256951911 C15.9632178,0.0877500712 18.7983588,2.278369 19.7050158,5.4175651 C20.6116728,8.5567612 19.3810617,11.9216434 16.6630656,13.7352245 L16.6630656,13.7352245 Z" />
</svg>
