<svg width="20" height="20" fill="#bbc1c5" viewBox="0 0 20 20" class="svg-icon table-icon" name="CopyIcon20"
     focusable="false">
    <path class="primary-fill" fill-rule="evenodd"
          d="M5 3a3 3 0 013-3h3.172a3 3 0 012.12.879l5.415 5.414A1 1 0 0119 7v6a3 3 0 01-3 3H8a3 3 0 01-3-3V3zm3-1a1 1 0 00-1 1v10a1 1 0 001 1h8a1 1 0 001-1V8h-3a3 3 0 01-3-3V2H8zm5 1.414V5a1 1 0 001 1h1.586L13 3.414z"
          clip-rule="evenodd" />
    <path class="primary-fill" d="M2 6a1 1 0 011 1v10a1 1 0 001 1h8a1 1 0 110 2H4a3 3 0 01-3-3V7a1 1 0 011-1z" />
</svg>
