<?xml version="1.0" encoding="UTF-8" standalone="no"?>
<!DOCTYPE svg PUBLIC "-//W3C//DTD SVG 1.1//EN" "http://www.w3.org/Graphics/SVG/1.1/DTD/svg11.dtd">
<svg version="1.1" xmlns="http://www.w3.org/2000/svg" preserveAspectRatio="xMidYMid meet" viewBox="0 0 21 21" width="21"
     height="21">

    <g>
        <path fill="#aab2b7" d="M13.08 0.32L14.29 0.71L15.43 1.23L16.49 1.88L17.47 2.65L18.35 3.53L19.12 4.51L19.77 5.57L20.29 6.71L20.68 7.92L20.92 9.18L21 10.5L20.92 11.82L20.68 13.08L20.29 14.29L19.77 15.43L19.12 16.49L18.35 17.47L17.47 18.35L16.49 19.12L15.43 19.77L14.29 20.29L13.08 20.68L11.82 20.92L10.5 21L9.18 20.92L7.92 20.68L6.71 20.29L5.57 19.77L4.51 19.12L3.53 18.35L2.65 17.47L1.88 16.49L1.23 15.43L0.71 14.29L0.32 13.08L0.08 11.82L0 10.5L0.08 9.18L0.32 7.92L0.71 6.71L1.23 5.57L1.88 4.51L2.65 3.53L3.53 2.65L4.51 1.88L5.57 1.23L6.71 0.71L7.92 0.32L9.18 0.08L10.5 0L11.82 0.08L13.08 0.32ZM7.75 2.24L6.51 2.77L5.37 3.48L4.35 4.35L3.48 5.37L2.77 6.51L2.24 7.75L1.91 9.09L1.8 10.5L1.91 11.91L2.24 13.25L2.77 14.49L3.48 15.63L4.35 16.65L5.37 17.52L6.51 18.23L7.75 18.76L9.09 19.09L10.5 19.2L11.91 19.09L13.25 18.76L14.49 18.23L15.63 17.52L16.65 16.65L17.52 15.63L18.23 14.49L18.76 13.25L19.09 11.91L19.2 10.5L19.09 9.09L18.76 7.75L18.23 6.51L17.52 5.37L16.65 4.35L15.63 3.48L14.49 2.77L13.25 2.24L11.91 1.91L10.5 1.8L9.09 1.91L7.75 2.24Z" id="d1b2p3HEnE" />
        <path fill="#aab2b7" d="M12.76 7.21C12.61 7.36 11.85 8.12 10.5 9.47C9.15 8.12 8.39 7.36 8.24 7.21C7.96 6.93 7.5 6.93 7.21 7.21C6.93 7.5 6.93 7.96 7.21 8.24C7.36 8.39 8.12 9.15 9.47 10.5C8.12 11.85 7.36 12.61 7.21 12.76C6.93 13.04 6.93 13.5 7.21 13.79C7.36 13.93 7.54 14 7.73 14C7.91 14 8.1 13.93 8.24 13.79C8.39 13.64 9.15 12.88 10.5 11.53C11.85 12.88 12.61 13.64 12.76 13.79C12.9 13.93 13.09 14 13.27 14C13.46 14 13.64 13.93 13.79 13.79C14.07 13.5 14.07 13.04 13.79 12.76C13.64 12.61 12.88 11.85 11.53 10.5C12.88 9.15 13.64 8.39 13.79 8.24C14.07 7.96 14.07 7.5 13.79 7.21C13.5 6.93 13.04 6.93 12.76 7.21Z" id="b1CAGW2EfQ" />
    </g>
</svg>
