<?xml version="1.0" encoding="UTF-8"?>
<svg width="16px" height="4px" viewBox="0 0 16 4" version="1.1" xmlns="http://www.w3.org/2000/svg">
    <g id="Page-1" stroke="none" stroke-width="1" fill="none" fill-rule="evenodd">
        <g id="03-01-02" transform="translate(-1317.000000, -265.000000)" fill="#BBC1C5" fill-rule="nonzero">
            <g id="Group-18" transform="translate(252.000000, 188.000000)">
                <g id="Group-19" transform="translate(955.000000, 69.000000)">
                    <g id="Icon/20x20/ellipsis/horisontal-normal" transform="translate(108.000000, 0.000000)">
                        <path d="M10,14 C11.1045695,14 12,14.8954305 12,16 C12,17.1045695 11.1045695,18 10,18 C8.8954305,18 8,17.1045695 8,16 C8,14.8954305 8.8954305,14 10,14 Z M10,8 C11.1045695,8 12,8.8954305 12,10 C12,11.1045695 11.1045695,12 10,12 C8.8954305,12 8,11.1045695 8,10 C8,8.8954305 8.8954305,8 10,8 Z M10,2 C11.1045695,2 12,2.8954305 12,4 C12,5.1045695 11.1045695,6 10,6 C8.8954305,6 8,5.1045695 8,4 C8,2.8954305 8.8954305,2 10,2 Z" id="Combined-Shape-Copy-2" transform="translate(10.000000, 10.000000) rotate(-270.000000) translate(-10.000000, -10.000000) "></path>
                    </g>
                </g>
            </g>
        </g>
    </g>
</svg>
