<?xml version="1.0" encoding="UTF-8"?>
<svg width="18px" height="18px" viewBox="0 0 18 18" version="1.1" xmlns="http://www.w3.org/2000/svg">
    <g id="Page-1" stroke="none" stroke-width="1" fill="none" fill-rule="evenodd">
        <g id="02-03-02-error" transform="translate(-362.000000, -515.000000)">
            <g id="Icon/20x20/Svetofor_!" transform="translate(361.000000, 514.000000)">
                <g id="Х">
                    <rect id="Rectangle" x="0" y="0" width="20" height="20"></rect>
                    <path d="M10,19 C5.03740002,19 1,14.9635 1,10 C1,5.03649999 5.03740002,1 10,1 C14.9626001,1 19,5.03649999 19,10 C19,14.9635 14.9626001,19 10,19 Z" id="Path-Copy-2" fill="#D0021B" fill-rule="nonzero"></path>
                    <path d="M11.4031338,10 L14.2094015,12.8062676 C14.5968662,13.1937324 14.5968662,13.8219368 14.2094015,14.2094015 C13.8219368,14.5968662 13.1937324,14.5968662 12.8062676,14.2094015 L10,11.4031338 L7.19373235,14.2094015 C6.80626765,14.5968662 6.17806324,14.5968662 5.79059853,14.2094015 C5.40313382,13.8219368 5.40313382,13.1937324 5.79059853,12.8062676 L8.59686618,10 L5.79059853,7.19373235 C5.40313382,6.80626765 5.40313382,6.17806324 5.79059853,5.79059853 C6.17806324,5.40313382 6.80626765,5.40313382 7.19373235,5.79059853 L10,8.59686618 L12.8062676,5.79059853 C13.1937324,5.40313382 13.8219368,5.40313382 14.2094015,5.79059853 C14.5968662,6.17806324 14.5968662,6.80626765 14.2094015,7.19373235 L11.4031338,10 Z" id="Path" fill="#FFFFFF"></path>
                </g>
            </g>
        </g>
    </g>
</svg>
