<svg width="20" height="20" viewBox="-0.25 0 20 20" className="svg-icon">
    <path className="secondary-fill"
          fill="#4a4a4a"
          d="M13.0842582,12.665659 L13.0842582,6.09066574 C13.0842582,5.63054555 13.4572593,5.25754444 13.9173795,5.25754444 C14.3774996,5.25754444 14.7505008,5.63054555 14.7505008,6.09066574 L14.7505008,12.665659 L16.8999537,11.2135286 C17.0835828,11.0926579 17.3117605,11.0605689 17.5216043,11.1261048 C17.7314481,11.1916406 17.9008082,11.3478837 17.9830114,11.5517759 C18.2040541,11.9884277 18.081337,12.5206693 17.6914189,12.816454 L14.3356876,14.9795303 C14.1046624,15.1284472 13.7353497,15.131552 13.4990714,14.9788839 L10.14334,12.8106221 C9.7534219,12.5148374 9.6307048,11.9825958 9.85174752,11.545944 C9.93514786,11.3430534 10.1050167,11.1881678 10.3147247,11.1238036 C10.5244328,11.0594393 10.7519436,11.0923599 10.9348052,11.2135286 L13.0842582,12.665659 Z"
          transform="translate(13.917379, 10.174924) rotate(-90.000000) translate(-13.917379, -10.174924) " />
    <path className="primary-fill"
          fill="rgba(167, 175, 180, 0.8)"
          d="M13.3651646,4.94900937 L13.3651646,2.44252439 C13.3651646,2.43829002 13.3651377,2.43405568 13.365084,2.42982165 C13.3580684,1.87758146 12.9047021,1.43558954 12.3524619,1.44260507 L3.3524619,1.55693893 C2.80517567,1.56389152 2.36516464,2.00952786 2.36516464,2.55685824 L2.36516464,17.4297399 C2.36516464,17.9820247 2.81287989,18.4297399 3.36516464,18.4297399 L12.3651646,18.4297399 C12.9174494,18.4297399 13.3651646,17.9820247 13.3651646,17.4297399 L13.3651646,15.1144558 C14.1577578,15.2274037 15,15.3590612 15,15.4085133 C15,17.1453362 15,18.3235279 15,18.3235279 C15,19.2440025 14.3035541,19.9901946 13.4444444,19.9901946 L2.40621773,19.9901946 C1.54710812,19.9901946 0.850662174,19.2440025 0.850662174,18.3235279 L0.850662174,1.65686123 C0.850662174,0.736386652 1.54710812,1.30742244e-10 2.40621773,1.30742402e-10 L13.4444444,1.3074443e-10 C14.3035541,1.30744588e-10 15,0.746192084 15,1.66666667 C15,1.66666667 15,3.543689 15,4.48220016 C15,4.5677437 14.2142988,4.76298444 13.3651646,4.94900937 Z" />
</svg>
