<?xml version="1.0" encoding="UTF-8"?>
<svg width="13px" height="16px" viewBox="0 0 13 16" version="1.1" xmlns="http://www.w3.org/2000/svg">
    <!-- Generator: Sketch 62 (91390) - https://sketch.com -->
    <title>Icon/20x20/file</title>
    <desc>Created with Sketch.</desc>
    <g id="Page-1" stroke="none" stroke-width="1" fill="none" fill-rule="evenodd">
        <g id="02-05-21" transform="translate(-256.000000, -346.000000)" fill="#17BB4F">
            <g id="Group-3" transform="translate(252.000000, 304.000000)">
                <g id="Group-2" transform="translate(0.000000, 40.000000)">
                    <g id="Icon/20x20/file">
                        <g id="noun_File_316571" transform="translate(4.000000, 2.000000)">
                            <path d="M12.1515328,15.5172414 C12.3626944,15.5172414 12.5337931,15.3486207 12.5337931,15.1405172 L12.5337931,4.06775862 C12.5337931,4.04293103 12.5311689,4.01827586 12.5262704,3.9937931 C12.5238211,3.98241379 12.5197973,3.97172414 12.5161234,3.96051724 C12.5124495,3.94827586 12.5096503,3.93551724 12.5045769,3.9237931 C12.4989785,3.91051724 12.4914558,3.89827586 12.484283,3.88568966 C12.4795594,3.87655172 12.4753606,3.86741379 12.4697623,3.85896552 C12.4554166,3.83827586 12.4394964,3.81862069 12.4214768,3.80086207 L8.67707512,0.110862069 C8.65905552,0.0929310345 8.63928646,0.0774137931 8.61829275,0.0634482759 C8.60954538,0.0579310345 8.60009821,0.0537931034 8.59117589,0.0489655172 C8.57840472,0.0418965517 8.56598345,0.0344827586 8.55251249,0.0289655172 C8.54044111,0.0239655172 8.52766994,0.0212068966 8.51507372,0.0175862069 C8.50370213,0.014137931 8.49303033,0.01 8.48130885,0.0075862069 C8.45664125,0.00275862069 8.43162375,0 8.40643131,0 L0.916053425,0 C0.705066721,0 0.533793103,0.16862069 0.533793103,0.376724138 L0.533793103,15.1406897 C0.533793103,15.3487931 0.705066721,15.5174138 0.916053425,15.5174138 L12.1515328,15.5174138 L12.1515328,15.5172414 Z M8.84293103,1.28586207 L11.247931,3.69086207 L8.84293103,3.69086207 L8.84293103,1.28586207 Z M1.46068966,0.753103448 L8.08965517,0.753103448 L8.08965517,4.06775862 C8.08965517,4.27568966 8.25844828,4.44448276 8.46637931,4.44448276 L11.7806897,4.44448276 L11.7806897,14.7641379 L1.46068966,14.7641379 L1.46068966,0.753103448 Z" id="Shape" fill-rule="nonzero"></path>
                        </g>
                    </g>
                </g>
            </g>
        </g>
    </g>
</svg>
