<?xml version="1.0" encoding="UTF-8"?>
<svg width="20px" height="20px" viewBox="0 0 20 20" version="1.1" xmlns="http://www.w3.org/2000/svg">
    <g id="Icon/20x20/Menu/onboarding-green" stroke="none" stroke-width="1" fill="none" fill-rule="evenodd">
        <g id="noun_presentation_691898" transform="translate(0.000000, 1.000000)" fill="#17BB4F" fill-rule="nonzero">
            <path d="M18.125,18 C17.779375,18 17.5,17.650037 17.5,17.2170849 L17.5,2.34874516 C17.5,1.91657605 17.779375,1.56583011 18.125,1.56583011 C18.470625,1.56583011 18.75,1.91657605 18.75,2.34874516 L18.75,17.2170849 C18.75,17.650037 18.470625,18 18.125,18 Z M1.875,18 C1.53,18 1.25,17.650037 1.25,17.2170849 L1.25,2.34874516 C1.25,1.91657605 1.53,1.56583011 1.875,1.56583011 C2.22,1.56583011 2.5,1.91657605 2.5,2.34874516 L2.5,17.2170849 C2.5,17.650037 2.22,18 1.875,18 Z M19.375,3.13166021 L0.625,3.13166021 C0.28,3.13166021 0,2.78091427 0,2.34874516 C0,1.91657605 0.28,1.56583011 0.625,1.56583011 L19.375,1.56583011 C19.720625,1.56583011 20,1.91657605 20,2.34874516 C20,2.78091427 19.720625,3.13166021 19.375,3.13166021 Z M19.375,18 L0.625,18 C0.28,18 0,17.650037 0,17.2170849 C0,16.7841329 0.28,16.4341699 0.625,16.4341699 L19.375,16.4341699 C19.720625,16.4341699 20,16.7841329 20,17.2170849 C20,17.650037 19.720625,18 19.375,18 Z M10,3.13166021 C9.655,3.13166021 9.375,2.78091427 9.375,2.34874516 L9.375,0.782915054 C9.375,0.350745944 9.655,0 10,0 C10.345,0 10.625,0.350745944 10.625,0.782915054 L10.625,2.34874516 C10.625,2.78091427 10.345,3.13166021 10,3.13166021 Z" id="Shape"></path>
        </g>
        <g id="noun_play_1940008" transform="translate(5.000000, 6.000000)" fill="#4A4A4A" fill-rule="nonzero">
            <path d="M5,0 C2.24210526,0 0,2.24210526 0,5 C0,7.75789474 2.24210526,10 5,10 C7.75789474,10 10,7.75789474 10,5 C10,2.24210526 7.75789474,0 5,0 Z M6.61052632,5.25263158 L4.25263158,6.82105263 C4.05263158,6.95789474 3.77894737,6.81052632 3.77894737,6.56842105 L3.77894737,3.43157895 C3.77894737,3.18947368 4.05263158,3.04210526 4.25263158,3.17894737 L6.61052632,4.74736842 C6.78947368,4.86315789 6.78947368,5.13684211 6.61052632,5.25263158 Z" id="Shape"></path>
        </g>
    </g>
</svg>
