<svg
        xmlns="http://www.w3.org/2000/svg"
        id="svg150"
        version="1.1"
        class="svg-icon eye-icon"
        viewBox="0 0 20 20"
        height="20"
        width="20">
  <g
     id="g148"
     fill-rule="evenodd">
    <path
        fill="rgba(167, 175, 180, 0.8)"
       id="path146"
       fill-rule="nonzero"
       d="m19.923 9.6c-2.02-4.69-5.82-7.6-9.92-7.6-4.1 0-7.9 2.91-9.92 7.6-0.11131 0.25505-0.11131 0.54495 0 0.8 2.02 4.69 5.82 7.6 9.92 7.6 4.1 0 7.9-2.91 9.92-7.6 0.11131-0.25505 0.11131-0.54495 0-0.8zm-9.92 6.4c-3.17 0-6.17-2.29-7.9-6 1.73-3.71 4.73-6 7.9-6 3.17 0 6.17 2.29 7.9 6-1.73 3.71-4.73 6-7.9 6zm0-10c-2.2091 0-4 1.7909-4 4s1.7909 4 4 4c2.2091 0 4-1.7909 4-4 0-1.0609-0.42143-2.0783-1.1716-2.8284-0.75015-0.75015-1.7676-1.1716-2.8284-1.1716zm0 6c-1.1046 0-2-0.89543-2-2s0.89543-2 2-2c1.1046 0 2 0.89543 2 2s-0.89543 2-2 2z" />
  </g>
</svg>
