<?xml version="1.0" encoding="UTF-8"?>
<svg width="20px" height="20px" viewBox="0 0 20 20" version="1.1" xmlns="http://www.w3.org/2000/svg">
    <g id="Icon/20x20/Menu/В-пути-Copy" stroke="none" stroke-width="1" fill="none" fill-rule="evenodd">
        <g id="Group" transform="translate(0.000000, 6.000000)">
            <path d="M19.4615508,5.54 L17.5012829,5.28 L16.7088342,3.34 C16.5002951,2.82 15.9789472,2.5 15.3324759,2.5 L13.0593992,2.5 C12.871714,2.5 12.7048827,2.62 12.6840288,2.8 L11.9332879,6.78 C11.8915801,6.96 11.7456027,7.08 11.5579174,7.08 L1.58974654,7.08 C1.40206132,7.08 1.23523,7.2 1.21437609,7.38 L1.00583695,8.52 C0.964129121,8.74 1.15181435,8.96 1.3812074,8.96 L2.19451005,8.96 C2.11109439,9.82 2.73671181,10.5 3.63343011,10.5 C4.53014842,10.5 5.42686672,9.82 5.65625977,8.96 L14.7277124,8.96 C14.6442967,9.82 15.2699141,10.5 16.1666324,10.5 C17.0842046,10.5 17.960069,9.82 18.1894621,8.96 L19.169596,8.96 C19.3572813,8.96 19.5241126,8.84 19.5449665,8.66 L19.9828987,6.28 C20.0663143,5.9 19.8369213,5.58 19.4615508,5.54 Z M4.86381104,8.82 C4.78039538,9.3 4.30075536,9.7 3.77940751,9.7 C3.27891358,9.7 2.92439704,9.3 3.02866661,8.82 C3.11208226,8.34 3.59172229,7.94 4.11307014,7.94 C4.61356407,7.94 4.96808061,8.34 4.86381104,8.82 Z M13.4764775,5.22 L13.7892862,3.54 L15.1239367,3.54 C15.3533298,3.54 15.5618689,3.66 15.6452846,3.86 L16.2083403,5.22 L13.4764775,5.22 Z M17.3970134,8.82 C17.3135977,9.3 16.8339577,9.7 16.3126098,9.7 C15.791262,9.7 15.4575994,9.3 15.5618689,8.82 C15.6452846,8.34 16.1249246,7.94 16.6462724,7.94 C17.1676203,7.94 17.480429,8.34 17.3970134,8.82 Z" id="Shape" fill="#4A4A4A" fill-rule="nonzero" />
            <path d="M11.9146866,6.24719768 L12.9938357,0.922870732 C13.0378826,0.711435366 12.8396715,0.5 12.5974136,0.5 L2.09222778,0.5 C1.71782913,0.5 1.40950082,0.769099557 1.40950082,1.0958633 L1.40950082,1.0958633 C1.40950082,1.42262705 1.71782913,1.69172661 2.09222778,1.69172661 L2.20234503,1.69172661 L3.2374472,1.69172661 C3.61184586,1.69172661 3.92017416,1.96082617 3.92017416,2.28758991 C3.92017416,2.61435366 3.61184586,2.88345322 3.2374472,2.88345322 L1.38747737,2.88345322 C1.01307872,2.88345322 0.704750411,3.15255278 0.704750411,3.47931652 L0.704750411,3.47931652 C0.704750411,3.80608027 1.01307872,4.07517983 1.38747737,4.07517983 L2.53269679,4.07517983 C2.90709544,4.07517983 3.21542375,4.34427939 3.21542375,4.67104313 C3.21542375,4.99780688 2.90709544,5.26690644 2.53269679,5.28612784 L0.682726961,5.28612784 C0.308328305,5.28612784 0,5.55522739 0,5.88199114 L0,5.88199114 C0,6.20875489 0.308328305,6.47785445 0.682726961,6.47785445 L11.4962411,6.47785445 C11.7164756,6.55474003 11.8926632,6.42019025 11.9146866,6.24719768 Z" id="Path" class="menu-icon icon-filled" />
        </g>
    </g>
</svg>
