<svg
    width="20" height="20" viewBox="0 -2.5 20 20" className="svg-icon overflowed ">
    <path
        className="primary-fill"
        fill="rgba(167, 175, 180, 0.8)"
        d="M1.66666667,15 C0.746192084,15 0,14.2538079 0,13.3333333 L0,1.66666667 C0,0.746192084 0.746192084,0 1.66666667,0 L18.3333333,0 C19.2538079,0 20,0.746192084 20,1.66666667 L20,13.3333333 C20,14.2538079 19.2538079,15 18.3333333,15 L1.66666667,15 Z M9.29115841,6.46543232 C9.68264081,6.85685549 10.3119344,6.86227948 10.7088416,6.46543232 L15.5083333,1.66666667 L4.49166667,1.66666667 L9.29115841,6.46543232 Z M11.536717,8.10242466 C11.1386293,8.47937641 10.3650993,8.78495618 9.81815789,8.78495618 L10.1638694,8.78495618 C9.61282309,8.78495618 8.84387005,8.47909218 8.44703351,8.10242466 L2.385745,2.34919819 C1.988609,1.97224644 1.66666667,2.1097676 1.66666667,2.6613601 L1.66666667,12.3386399 C1.66666667,12.8879939 2.11245974,13.3333333 2.65933037,13.3333333 L17.3406696,13.3333333 C17.8889027,13.3333333 18.3333333,12.8902324 18.3333333,12.3386399 L18.3333333,2.6613601 C18.3333333,2.11200609 18.0103193,1.97253067 17.6125317,2.34919819 L11.536717,8.10242466 Z" />
    <path
        className="secondary-fill"
        fill="#4a4a4a"
        d="M16,12 L14,12 C13.4477153,12 13,11.5522847 13,11 C13,10.4477153 13.4477153,10 14,10 L16,10 C16.5522847,10 17,10.4477153 17,11 C17,11.5522847 16.5522847,12 16,12 L16,12 Z" />
</svg>
