<?xml version="1.0" encoding="UTF-8"?>
<svg width="44px" height="44px" viewBox="0 0 44 44" version="1.1" xmlns="http://www.w3.org/2000/svg">
    <title>Layout/Top Bar/icon/message</title>
    <g id="Symbols" stroke="none" stroke-width="1" fill="none" fill-rule="evenodd">
        <g id="Layout/Top-Bar/Default-with-notif-and-mail" transform="translate(-1205.000000, -8.000000)">
            <g id="Group" transform="translate(1205.000000, 8.000000)">
                <rect id="Rectangle" fill="#FFFFFF" opacity="0.5" x="0" y="0" width="44" height="44" rx="6"></rect>
                <g transform="translate(12.000000, 12.000000)" fill-rule="nonzero" id="2">
                    <g transform="translate(0.000000, 2.000000)">
                        <path d="M18.3333333,0 C19.2538079,0 20,0.746192084 20,1.66666667 L20,13.3333333 C20,14.2538079 19.2538079,15 18.3333333,15 L1.66666667,15 C0.746192084,15 0,14.2538079 0,13.3333333 L0,1.66666667 C0,0.746192084 0.746192084,0 1.66666667,0 L18.3333333,0 Z M2.30739349,2.28063773 C1.94711421,1.99242291 1.66666667,2.14654043 1.66666667,2.6613601 L1.66666667,2.6613601 L1.66666667,12.3386399 L1.6733644,12.4546422 C1.73086709,12.9493417 2.15152193,13.3333333 2.65933037,13.3333333 L2.65933037,13.3333333 L17.3406696,13.3333333 L17.4564352,13.3266731 C17.9501252,13.2694797 18.3333333,12.8508329 18.3333333,12.3386399 L18.3333333,12.3386399 L18.3333333,2.6613601 L18.3291,2.55698584 C18.2899325,2.09570333 17.9838001,1.99764184 17.6125317,2.34919819 L17.6125317,2.34919819 L11.536717,8.10242466 L11.4066295,8.21313482 C11.0796204,8.46536951 10.5981441,8.67115575 10.1686971,8.75016027 L10.1686971,8.75016027 L9.98966667,8.77566667 L9.81181297,8.75013298 C9.32012654,8.65977844 8.76450274,8.40375867 8.44703351,8.10242466 L8.44703351,8.10242466 L2.385745,2.34919819 Z M15.5083333,1.66666667 L4.49166667,1.66666667 L9.29115841,6.46543232 L9.38550799,6.54890128 C9.77808014,6.85530965 10.3424657,6.83175278 10.7088416,6.46543232 L10.7088416,6.46543232 L15.5083333,1.66666667 Z" id="Combined-Shape" fill="#BBC1C5"></path>
                        <path d="M16,12 L14,12 C13.4477153,12 13,11.5522847 13,11 C13,10.4477153 13.4477153,10 14,10 L16,10 C16.5522847,10 17,10.4477153 17,11 C17,11.5522847 16.5522847,12 16,12 L16,12 Z" id="calendar-path" fill="#4A4A4A"></path>
                    </g>
                </g>
            </g>
        </g>
    </g>
</svg>
