<svg width="89px" height="115px" viewBox="0 0 89 115" version="1.1" xmlns="http://www.w3.org/2000/svg">
    <g stroke="none" stroke-width="1" fill="none" fill-rule="evenodd">
        <g transform="translate(-740.000000, -180.000000)">
            <g transform="translate(647.000000, 180.000000)">
                <g>
                    <g transform="translate(93.000000, 0.000000)">
                        <path d="M67.829,0 L89,21.171 L89,86 C89,91.514 84.514,96 79,96 L31,96 C25.486,96 21,91.514 21,86 L21,10 C21,4.486 25.486,0 31,0 L67.829,0 Z M65,4 L31,4 C27.691,4 25,6.691 25,10 L25,86 C25,89.309 27.691,92 31,92 L79,92 C82.309,92 85,89.309 85,86 L85,24 L75,24 C69.486,24 65,19.514 65,14 L65,4 Z M82.171,20 L69,6.829 L69,14 C69,17.309 71.691,20 75,20 L82.171,20 Z" id="Combined-Shape" fill="#74797C" fill-rule="nonzero"></path>
                        <g transform="translate(0.000000, 66.000000)">
                            <g>
                                <path d="M8.11357733,7.21841325 C17.6474817,-2.31549109 33.1054734,-2.31562672 42.639649,7.21841325 C52.1735533,16.7523176 52.1735533,32.2104449 42.639649,41.7443493 C33.105609,51.2783892 17.6474817,51.2783892 8.11357733,41.7443493 C-1.42032701,32.2103093 -1.42046264,16.7524532 8.11357733,7.21841325 Z M39.1870283,10.6708984 C31.5596878,3.04382913 19.1935385,3.0436935 11.5661981,10.671034 C3.93899321,18.2981032 3.93885758,30.6646593 11.5661981,38.2918642 C19.1934029,45.9185265 31.5596878,45.9182552 39.1868926,38.2918642 C46.8142331,30.6645237 46.8142331,18.2983745 39.1870283,10.6708984 Z" id="Shape" fill="#74797C" fill-rule="nonzero"></path>
                                <path d="M39.1868926,38.2918642 C31.5596878,45.9182552 19.1934029,45.9185265 11.5661981,38.2918642 C3.93885758,30.6646593 3.93899321,18.2981032 11.5661981,10.671034 C19.1935385,3.0436935 31.5596878,3.04382913 39.1870283,10.6708984 C46.8142331,18.2983745 46.8142331,30.6645237 39.1868926,38.2918642 Z" id="Path" fill="#FFFFFF" fill-rule="nonzero"></path>
                                <path d="M28.8290304,24.4815169 L35.6473325,17.6630792 C36.6008179,16.7097295 36.6008179,15.1639439 35.6473325,14.2104585 C34.6945253,13.2571088 33.1481971,13.2571088 32.194983,14.2104585 L25.3765453,21.0288962 L18.5581077,14.2103229 C17.6047579,13.2569731 16.059108,13.2569731 15.1054869,14.2103229 C14.1521372,15.1636726 14.1521372,16.7094582 15.1054869,17.6629436 L21.9239246,24.4813813 L15.1054869,31.2998189 C14.1521372,32.2528974 14.1521372,33.7989543 15.1054869,34.7520328 C15.5822296,35.2291823 16.2069457,35.467079 16.8317973,35.467079 C17.4565133,35.467079 18.081365,35.2286398 18.5581077,34.7520328 L25.3765453,27.9337307 L32.1948474,34.7520328 C32.6715901,35.2291823 33.2958992,35.467079 33.9211577,35.467079 C34.5458738,35.467079 35.1708611,35.2286398 35.6474681,34.7520328 C36.6008179,33.7989543 36.6009535,32.2528974 35.6474681,31.2998189 L28.8290304,24.4815169 Z" id="Path" fill="#74797C"></path>
                            </g>
                        </g>
                    </g>
                </g>
            </g>
        </g>
    </g>
</svg>
