<svg xmlns="http://www.w3.org/2000/svg" width="20" height="15" viewBox="0 0 20 15">
    <g fill="none">
        <path fill="#BBC1C5" d="M18.333 0C19.253 0 20 .746 20 1.667v11.666c0 .92-.746 1.667-1.667 1.667H1.667C.747 15 0 14.254 0 13.333V1.667C0 .747.746 0 1.667 0h16.666zM2.307 2.28c-.36-.288-.64-.133-.64.381v9.678l.006.116c.058.494.479.878.986.878h14.682l.115-.006c.494-.058.877-.476.877-.988V2.66l-.004-.104c-.04-.461-.345-.56-.716-.208l-6.076 5.753-.13.111c-.327.252-.809.458-1.238.537l-.18.026-.177-.026c-.492-.09-1.047-.346-1.365-.648L2.386 2.35zm13.201-.613H4.492l4.8 4.798.094.084c.392.306.956.283 1.323-.084l4.8-4.798z"/>
        <path fill="#4A4A4A" d="M16 12h-2c-.552 0-1-.448-1-1s.448-1 1-1h2c.552 0 1 .448 1 1s-.448 1-1 1z"/>
    </g>
</svg>
