<?xml version="1.0" encoding="UTF-8"?>
<svg width="18px" height="18px" viewBox="0 0 18 18" version="1.1" xmlns="http://www.w3.org/2000/svg">
    <g id="Page-1" stroke="none" stroke-width="1" fill="none" fill-rule="evenodd" fill-opacity="0.8">
        <g id="03-01-02" transform="translate(-1280.000000, -258.000000)" fill="#AAB2B7" fill-rule="nonzero">
            <g id="Group-18" transform="translate(252.000000, 188.000000)">
                <g id="Group-19" transform="translate(955.000000, 69.000000)">
                    <g id="Icon/20x20/Print" transform="translate(72.000000, 0.000000)">
                        <path d="M5.5,8.2 C5.00294373,8.2 4.6,8.60294373 4.6,9.1 C4.6,9.59705627 5.00294373,10 5.5,10 C5.99705627,10 6.4,9.59705627 6.4,9.1 C6.4,8.60294373 5.99705627,8.2 5.5,8.2 Z M16.3,4.6 L15.4,4.6 L15.4,1.9 C15.4,1.40294373 14.9970563,1 14.5,1 L5.5,1 C5.00294373,1 4.6,1.40294373 4.6,1.9 L4.6,4.6 L3.7,4.6 C2.20883118,4.6 1,5.80883118 1,7.3 L1,12.7 C1,14.1911688 2.20883118,15.4 3.7,15.4 L4.6,15.4 L4.6,18.1 C4.6,18.5970563 5.00294373,19 5.5,19 L14.5,19 C14.9970563,19 15.4,18.5970563 15.4,18.1 L15.4,15.4 L16.3,15.4 C17.7911688,15.4 19,14.1911688 19,12.7 L19,7.3 C19,5.80883118 17.7911688,4.6 16.3,4.6 Z M6.4,2.8 L13.6,2.8 L13.6,4.6 L6.4,4.6 L6.4,2.8 Z M13.6,17.2 L6.4,17.2 L6.4,13.6 L13.6,13.6 L13.6,17.2 Z M17.2,12.7 C17.2,13.1970563 16.7970563,13.6 16.3,13.6 L15.4,13.6 L15.4,12.7 C15.4,12.2029437 14.9970563,11.8 14.5,11.8 L5.5,11.8 C5.00294373,11.8 4.6,12.2029437 4.6,12.7 L4.6,13.6 L3.7,13.6 C3.20294373,13.6 2.8,13.1970563 2.8,12.7 L2.8,7.3 C2.8,6.80294373 3.20294373,6.4 3.7,6.4 L16.3,6.4 C16.7970563,6.4 17.2,6.80294373 17.2,7.3 L17.2,12.7 Z" id="Shape-16"></path>
                    </g>
                </g>
            </g>
        </g>
    </g>
</svg>
