<?xml version="1.0" encoding="UTF-8"?>
<svg width="16px" height="16px" viewBox="0 0 16 16" version="1.1" xmlns="http://www.w3.org/2000/svg">
    <g id="Page-1" stroke="none" stroke-width="1" fill="none" fill-rule="evenodd">
        <g id="00-01-copy" transform="translate(-386.000000, -293.000000)" fill="#74797C" fill-rule="nonzero">
            <g id="Group-3" transform="translate(252.000000, 286.000000)">
                <path d="M141.17,18.44 C141.132154,18.4957452 141.101888,18.5562757 141.08,18.62 C141.051168,18.6766856 141.030946,18.7373522 141.02,18.8 C141.015091,18.8665763 141.015091,18.9334237 141.02,19 C141.01662,19.1311765 141.044019,19.2613206 141.1,19.38 C141.190924,19.6312303 141.38877,19.8290762 141.64,19.92 C141.88204,20.0269768 142.15796,20.0269768 142.4,19.92 C142.65123,19.8290762 142.849076,19.6312303 142.94,19.38 C142.984406,19.2584105 143.004783,19.1293561 143,19 C143.001537,18.734197 142.897187,18.4787188 142.71,18.29 C142.522233,18.1006873 142.266638,17.9942017 142,17.9942017 C141.733362,17.9942017 141.477767,18.1006873 141.29,18.29 C141.246995,18.3375199 141.206921,18.3876125 141.17,18.44 Z M142,23 C137.581722,23 134,19.418278 134,15 C134,10.581722 137.581722,7 142,7 C146.418278,7 150,10.581722 150,15 C150,17.1217319 149.157145,19.1565632 147.656854,20.6568542 C146.156563,22.1571453 144.121732,23 142,23 Z M139.4,11.4999988 C139.202941,11.8099891 139.191692,12.203062 139.370702,12.5238128 C139.549712,12.8445637 139.890161,13.0413553 140.25745,13.0363839 C140.624739,13.0314125 140.959737,12.8254784 141.13,12.4999988 C141.309341,12.1893658 141.641315,11.998576 142,11.9999988 C142.552285,11.9999988 143,12.4477153 143,12.9999988 C143,13.5522847 142.552285,13.9999988 142,13.9999988 C141.447715,13.9999988 141,14.4477153 141,14.9999988 L141,15.9999988 C141,16.5522847 141.447715,16.9999988 142,16.9999988 C142.552285,16.9999988 143,16.5522847 143,15.9999988 L143,15.82 C144.364969,15.3247186 145.179288,13.922968 144.933399,12.4918903 C144.687509,11.0608126 143.452005,10.0112653 142,9.99999876 C140.927516,9.99931238 139.936242,10.5712013 139.4,11.4999988 Z" id="Shape"></path>
            </g>
        </g>
    </g>
</svg>
