<?xml version="1.0" encoding="UTF-8"?>
<svg width="20px" height="20px" viewBox="0 0 20 20" version="1.1" xmlns="http://www.w3.org/2000/svg">
    <g id="Icon/20x20/Menu/Готовы-к-отправке-Copy" stroke="none" stroke-width="1" fill="none" fill-rule="evenodd">
        <g id="noun_Check_1912044" transform="translate(1.000000, 1.000000)">
            <path d="M9,0 C13.9704857,0 18,4.0295143 18,9 C18,13.9704857 13.9704857,18 9,18 C4.0295143,18 0,13.9704857 0,9 C0,4.0295143 4.0295143,0 9,0 Z" id="Shape" class="menu-icon" />
            <path d="M2.39711801,8.64561036 C2.92525189,8.15490085 3.79156784,8.15490085 4.32004092,8.64561036 L6.80332167,10.952071 C8.26052344,9.85600615 11.1959573,7.71301032 14.5482676,5.2689116 C15.5746858,4.51426462 16.5417441,5.5041876 15.646257,6.31678743 L7.76563112,13.6311308 C7.23071325,14.1281395 6.38271409,14.1177458 5.84236902,13.6311308 L2.39711801,10.4317552 C1.86762733,9.94073071 1.86762733,9.13694979 2.39711801,8.64561036 Z" id="Path" fill="#4A4A4A" />
        </g>
    </g>
</svg>
