<svg version="1.1" xmlns="http://www.w3.org/2000/svg" x="0px" y="0px" width="24px" height="24px"
     viewBox="800 382 300 310" xml:space="preserve" fill="white">
    <path d="M1068.86,444.58c7.14,9.22,13.24,19.29,18.11,30.04L949.28,576.09l-57.52-36.06v-43.38l57.52,36.06L1068.86,444.58z"/>
    <path d="M833.08,536.96c0-1.95,0.05-3.88,0.15-5.81l-34.86-1.74c-0.12,2.5-0.19,5.02-0.19,7.55
        c0,41.73,16.91,79.51,44.26,106.85l24.72-24.72C846.11,598.05,833.08,569,833.08,536.96z"/>
    <path d="M949.28,420.76c1.95,0,3.88,0.07,5.81,0.16l1.74-34.88c-2.5-0.12-5.02-0.19-7.55-0.19
        c-41.73,0-79.51,16.91-106.85,44.26l24.72,24.72C888.2,433.79,917.25,420.76,949.28,420.76z"/>
    <path d="M949.28,653.17c-1.95,0-3.88-0.05-5.81-0.15l-1.74,34.86c2.5,0.12,5.02,0.19,7.55,0.19
        c41.73,0,79.51-16.91,106.85-44.26l-24.72-24.72C1010.37,640.13,981.32,653.17,949.28,653.17z"/>
    <path d="M1014.8,441.04l29.39-21.66c-25.94-20.96-58.95-33.53-94.9-33.53l0,0v34.91
        C973.57,420.76,996.13,428.25,1014.8,441.04z"/>
    <path d="M1100.39,536.96c0-9.24-0.83-18.29-2.42-27.07l-32.53,23.97c0.03,1.03,0.04,2.06,0.04,3.1
        c0,34.12-14.78,64.85-38.28,86.13l23.45,25.92C1081.2,621.37,1100.39,581.41,1100.39,536.96z"/>
    <path d="M949.28,653.17c-34.12,0-64.85-14.78-86.13-38.28l-25.92,23.45
        c27.65,30.54,67.61,49.73,112.05,49.73L949.28,653.17C949.28,653.17,949.28,653.17,949.28,653.17z"/>
    <path d="M871.36,450.83l-23.45-25.92c-30.54,27.65-49.73,67.61-49.73,112.05h34.91
        C833.08,502.84,847.86,472.11,871.36,450.83z"/>
</svg>
