<?xml version="1.0" encoding="UTF-8"?>
<svg width="94px" height="16px" viewBox="0 0 94 16" version="1.1" xmlns="http://www.w3.org/2000/svg">
    <title>sberbusiness</title>
    <g id="Draft" stroke="none" stroke-width="1" fill="none" fill-rule="evenodd">
        <g id="01-01-copy-6" transform="translate(-398.000000, -813.000000)" fill="#FFFFFF" fill-rule="nonzero">
            <g id="Кнопка" transform="translate(303.000000, 805.000000)">
                <g id="sberbusiness" transform="translate(95.000000, 8.000000)">
                    <path d="M1.78361324,7.85260326 C1.78361324,7.75449126 1.78604766,7.65696738 1.79088382,7.55999903 L0.00970036472,7.4720495 C0.00363777565,7.59829621 0,7.72516379 0,7.85260326 C0,9.95643267 0.863920257,11.8616199 2.26134782,13.2408579 L3.52419116,11.994451 C2.44989286,10.9329621 1.78361324,9.46819255 1.78361324,7.85260326 Z" id="Path"></path>
                    <path d="M7.720266,1.99290435 C7.81970142,1.99290435 7.91851606,1.9964988 8.01672613,2.00128595 L8.10586841,0.242702789 C7.97797148,0.236719212 7.84943732,0.233128834 7.720266,0.233128834 C5.58871035,0.233128834 3.65834569,1.0857903 2.26092302,2.4650022 L3.52376635,3.7113928 C4.59927368,2.64990378 6.0833715,1.99290435 7.720266,1.99290435 Z" id="Path"></path>
                    <path d="M7.72057643,13.7121878 C7.62112464,13.7121878 7.52232638,13.7098025 7.42410001,13.704999 L7.33495766,15.4629773 C7.46287096,15.4689735 7.59140512,15.4725515 7.72057643,15.4725515 C9.85213205,15.4725515 11.7824967,14.6198999 13.1799031,13.2407109 L11.9170434,11.994304 C10.8415524,13.0546003 9.35742188,13.7121878 7.72057643,13.7121878 Z" id="Path"></path>
                    <path d="M11.0682149,3.01550798 L12.5699256,1.92349887 C11.2446369,0.866192504 9.558041,0.233128834 7.72105019,0.233128834 L7.72105019,1.99350888 C8.96209816,1.99290435 10.114592,2.37107278 11.0682149,3.01550798 Z" id="Path"></path>
                    <path d="M15.3172098,6.48822683 C15.398428,6.93175106 15.4408914,7.38786011 15.4408914,7.85416776 C15.4408914,10.0157084 14.5293288,11.9674501 13.0655442,13.354049 L12.9006472,13.5057719 L11.7020465,12.1979171 C12.9024445,11.124679 13.6578663,9.57442792 13.6578663,7.85354669 L13.6571087,7.77543918 L13.6571087,7.77543918 L13.655432,7.69733175 L15.3172098,6.48822683 Z M27.8553035,4.29741185 L28.0339252,4.43188262 L28.128638,4.51565758 L26.655854,5.55819064 C26.1132404,5.18633454 25.4656658,4.99100965 24.8042188,4.99969081 C23.6868393,4.95639218 22.6349568,5.51756855 22.0631603,6.4620378 C21.4913637,7.40650698 21.4913637,8.58278539 22.0631603,9.52725464 C22.6349568,10.4717239 23.6868393,11.0329002 24.8042188,10.9896016 C25.3509297,10.9912318 25.8906927,10.8765587 26.386723,10.6544023 L26.5706125,10.5660726 L27.0299696,10.3194019 L28.3606843,11.2502349 C27.3901784,12.1854597 26.0727203,12.689924 24.7142416,12.6464845 C23.374191,12.6744022 22.0742436,12.1963499 21.0820058,11.3107391 C20.154607,10.4289988 19.6402755,9.20910086 19.6613138,7.94112328 L19.6611528,7.78487567 C19.6813294,6.58924367 20.1923315,5.44953822 21.0820058,4.62735757 C22.0870614,3.76480169 23.3850895,3.30468733 24.7189772,3.33815374 C25.8458217,3.30708116 26.9488359,3.64582918 27.8553035,4.29741185 Z M92.0360987,7.78269833 C92.5913272,7.77996602 93.1344616,7.94221246 93.5941244,8.24829823 L93.5941244,9.34668129 C93.2683639,8.80330869 92.6777571,8.46633294 92.0360987,8.45773573 C91.0132005,8.45773573 90.4496596,9.04416045 90.4496596,10.1890852 L90.4496596,10.2170102 C90.4496596,11.4084765 91.0226721,11.957668 92.0550413,11.957668 C92.6962171,12.0052198 93.3105541,11.6961484 93.6462165,11.1571515 L93.6462165,12.0600597 C93.2271255,12.4705192 92.6441834,12.676836 92.0550413,12.6232137 L92.0550413,12.6185596 C90.5159589,12.6185596 89.630394,11.8087348 89.630394,10.1797768 C89.630394,8.55081899 90.6627638,7.78269833 92.0360987,7.78269833 Z M86.6611476,7.78288173 C88.0392187,7.78288173 88.8111283,8.6020148 88.8111283,9.97964778 L88.8111283,10.4822976 L85.0841801,10.4822976 C85.0582917,10.8972305 85.2218781,11.3019212 85.5304365,11.5862738 C85.8389942,11.8706264 86.260429,12.0050643 86.6800901,11.9530138 C87.6272181,11.9530138 88.2097023,11.5992973 88.4748979,11.1524974 L88.4748979,12.0554055 C88.2333803,12.3439638 87.6319543,12.6185596 86.6800901,12.6185596 C85.1362716,12.6185596 84.2507067,11.8087348 84.2507067,10.1797768 C84.2507067,8.55081899 85.2830765,7.78288173 86.6611476,7.78288173 Z M75.7407624,7.75956826 C76.9720286,7.75956826 77.3935001,8.22502738 77.3935001,8.96969386 C77.42375,9.45089217 77.1143351,9.8897091 76.6452691,10.0308436 C77.2893164,10.1518519 77.6397539,10.4962602 77.6397539,11.0919933 C77.6397539,12.1391805 76.754189,12.5999428 75.669727,12.5999428 C75.0226594,12.6536269 74.3808549,12.4489647 73.8891262,12.0321347 L73.9080695,11.1524974 C74.3200277,11.7049473 74.9940011,12.0079498 75.6886702,11.9530138 C76.361131,11.9530138 76.8489017,11.6830723 76.8489017,11.1664599 C76.8489017,10.6498475 76.4511082,10.491606 75.6886702,10.491606 L74.9593811,10.491606 L74.9593811,9.8539853 L75.5466008,9.8539853 C76.1574984,9.8539853 76.5979124,9.63058532 76.5979124,9.10931882 C76.5979124,8.67182728 76.361131,8.44842737 75.7407624,8.4298107 C75.0385865,8.42305752 74.3759699,8.74866584 73.9601617,9.30479377 L73.9601617,8.22502738 C74.4522375,7.94594368 75.0047179,7.78785678 75.5706315,7.76301213 L75.7407624,7.75956826 Z M66.6341264,6.01895303 L66.6341264,6.76361951 L62.8456144,6.76361951 L62.8456144,8.24829823 L64.1810648,8.24829823 C66.0753208,8.24829823 67.0650698,8.90453557 67.0650698,10.3612893 C67.0650698,11.8180431 66.0421711,12.5301304 64.1810648,12.5301304 L61.9647853,12.5301304 L61.9647853,6.01895303 L66.6341264,6.01895303 Z M69.1866362,7.88061917 L69.1866362,11.338664 L71.9333078,7.88061917 L72.6436537,7.88061917 L72.6436537,12.5301304 L71.8338589,12.5301304 L71.8338589,9.03950634 L69.1866362,12.4184304 L69.0966593,12.5301304 L68.3768422,12.5301304 L68.3768422,7.88061917 L69.1866362,7.88061917 Z M79.6855502,7.88061917 L79.6855502,9.82606027 L82.2570025,9.82606027 L82.2570025,7.88061917 L83.0667972,7.88061917 L83.0667972,12.5301304 L82.2570025,12.5301304 L82.2570025,10.5195309 L79.6855502,10.5195309 L79.6855502,12.5301304 L78.8757555,12.5301304 L78.8757555,7.88061917 L79.6855502,7.88061917 Z M47.2369452,3.45916203 L45.0917002,4.96711167 L42.1035114,4.96711167 L42.1035114,7.18714857 L46.4839784,7.18714857 L46.4839784,8.69509806 L42.1035114,8.69509806 L42.1035114,11.0175267 L47.2369452,11.0175267 L47.2369452,12.5254762 L40.057715,12.5254762 L40.057715,3.45916203 L47.2369452,3.45916203 Z M38.2723787,3.45916203 L36.1271339,4.96711167 L32.139725,4.96711167 L32.139725,6.99632773 L34.6354073,6.99632773 C36.8990432,6.99632773 38.1492522,7.94577746 38.1397808,9.67712702 C38.1397808,11.4373065 36.8282534,12.4672201 34.5489957,12.5230794 L34.3512689,12.5254762 L30.0891929,12.5254762 L30.0891929,3.45916203 L38.2723787,3.45916203 Z M53.0523109,3.45916203 C55.5432579,3.45916203 57.0965475,4.70182423 57.0965475,6.70311533 C57.0965475,8.65309124 55.6263884,9.89609922 53.2424082,9.95856122 L53.0523109,9.96103111 L51.2006758,9.96103111 L51.2006758,12.5254762 L49.145408,12.5254762 L49.145408,3.45916203 L53.0523109,3.45916203 Z M62.8408783,8.9976189 L62.8408783,11.7901181 L64.1479151,11.7901181 C65.4454807,11.7901181 66.1463554,11.3991682 66.1463554,10.3147476 C66.1463554,9.33271881 65.5212508,9.00692719 64.119502,9.00692719 L62.8408783,8.9976189 Z M34.2754986,8.50427729 L32.139725,8.50427729 L32.139725,11.0221808 L34.2754986,11.0221808 C35.5304432,11.0175267 36.1697546,10.5986518 36.1697546,9.76090198 C36.1697546,8.92315216 35.5777996,8.50427729 34.2754986,8.50427729 Z M13.8716469,3.15812357 C14.2386393,3.63158188 14.5489514,4.14639723 14.796245,4.69205431 L7.76608842,9.87475938 L4.82905119,8.03297166 L4.82905119,5.81774 L7.76608842,7.65417373 L13.8716469,3.15812357 Z M85.5675956,8.80069889 C85.2933242,9.03940002 85.1244562,9.37205685 85.0938189,9.72835479 L85.0887117,9.82106257 L88.0013336,9.82140616 C88.038298,9.45805724 87.9107799,9.09712014 87.6526529,8.83446952 C87.3945252,8.57181884 87.0319175,8.43404185 86.6611476,8.45773573 C86.2637725,8.41579869 85.8668024,8.54029762 85.5675956,8.80069889 Z M53.0144256,4.96711167 L51.1959402,4.96711167 L51.1959402,8.45773573 L53.0144256,8.45773573 C54.326198,8.45773573 55.0507507,7.82942336 55.0507507,6.70776952 C55.0507507,5.58611567 54.326198,4.96711167 53.0144256,4.96711167 Z" id="Combined-Shape"></path>
                    <path d="M7.72119729,13.712531 C5.97820131,13.712531 4.40796745,12.9669937 3.32094155,11.7822479 L1.99627375,12.9651803 C3.40884211,14.5053842 5.45074898,15.4729111 7.72119729,15.4729111 L7.72119729,13.712531 Z" id="Path"></path>
                    <path d="M3.73940045,3.50976069 L2.54083235,2.20234621 C0.980319856,3.5965339 0,5.61179285 0,7.85268496 L1.78361324,7.85268496 C1.78421776,6.13179484 2.53900245,4.58262116 3.73940045,3.50976069 Z" id="Path"></path>
                </g>
            </g>
        </g>
    </g>
</svg>
