<?xml version="1.0" encoding="UTF-8"?>
<svg width="20px" height="20px" viewBox="0 0 625 625" version="1.1" xmlns="http://www.w3.org/2000/svg">
    <path d="M602.143527,235.309775 L543.238192,215.674664 L570.976683,160.197682 C576.739351,148.297188 574.365774,134.05573 565.054983,124.66748 L498.669605,58.2821026 C489.226675,48.8296485 474.809266,46.4476418 462.827735,52.3604023 L407.350753,80.0988933 L387.715641,21.1935585 C383.464882,8.60721363 371.703209,0.0987688239 358.418808,2.58544375e-12 L264.918277,2.58544375e-12 C251.519155,-0.0344829444 239.597464,8.49893786 235.309775,21.1935585 L215.674664,80.0988933 L160.197682,52.3604023 C148.297188,46.5977344 134.05573,48.9713107 124.66748,58.2821026 L58.2821026,124.66748 C48.8296485,134.11041 46.4476418,148.527819 52.3604023,160.50935 L80.0988933,215.986332 L21.1935585,235.621444 C8.60721363,239.872203 0.0987688239,251.633876 -6.09336542e-13,264.918277 L-6.09336542e-13,358.418808 C-0.0344829444,371.81793 8.49893786,383.739621 21.1935585,388.02731 L80.0988933,407.662421 L52.3604023,463.139403 C46.5977344,475.039897 48.9713107,489.281355 58.2821026,498.669605 L124.66748,565.054983 C134.11041,574.507437 148.527819,576.889443 160.50935,570.976683 L215.986332,543.238192 L235.621444,602.143527 C239.909132,614.838147 251.830823,623.371568 265.229945,623.337085 L358.730477,623.337085 C372.129599,623.371568 384.05129,614.838147 388.338978,602.143527 L407.97409,543.238192 L463.451072,570.976683 C475.269749,576.591219 489.336983,574.225932 498.669605,565.054983 L565.054983,498.669605 C574.507437,489.226675 576.889443,474.809266 570.976683,462.827735 L543.238192,407.350753 L602.143527,387.715641 C614.729872,383.464882 623.238316,371.703209 623.337085,358.418808 L623.337085,264.918277 C623.371568,251.519155 614.838147,239.597464 602.143527,235.309775 Z M561.003293,335.978681 L523.60308,348.445418 C506.196502,354.091603 492.150206,367.101314 485.188747,384.024862 C478.227288,400.948409 479.053953,420.076076 487.449542,436.335918 L505.214642,471.86612 L470.931114,506.149648 L436.335918,487.449542 C420.164105,479.392598 401.292049,478.748939 384.608868,485.685316 C367.925687,492.621692 355.072969,506.455579 349.380424,523.60308 L336.913686,561.003293 L287.358404,561.003293 L274.891667,523.60308 C269.245482,506.196502 256.235771,492.150206 239.312223,485.188747 C222.388676,478.227288 203.261009,479.053953 187.001167,487.449542 L151.470966,505.214642 L117.187437,470.931114 L135.887544,436.335918 C144.283132,420.076076 145.109797,400.948409 138.148338,384.024862 C131.186879,367.101314 117.140583,354.091603 99.7340049,348.445418 L62.3337923,335.978681 L62.3337923,287.358404 L99.7340049,274.891667 C117.140583,269.245482 131.186879,256.235771 138.148338,239.312223 C145.109797,222.388676 144.283132,203.261009 135.887544,187.001167 L118.122443,152.405971 L152.405971,118.122443 L187.001167,135.887544 C203.261009,144.283132 222.388676,145.109797 239.312223,138.148338 C256.235771,131.186879 269.245482,117.140583 274.891667,99.7340049 L287.358404,62.3337923 L335.978681,62.3337923 L348.445418,99.7340049 C354.091603,117.140583 367.101314,131.186879 384.024862,138.148338 C400.948409,145.109797 420.076076,144.283132 436.335918,135.887544 L471.86612,118.122443 L506.149648,152.405971 L487.449542,187.001167 C479.392598,203.17298 478.748939,222.045036 485.685316,238.728217 C492.621692,255.411399 506.455579,268.264116 523.60308,273.956662 L561.003293,286.423399 L561.003293,335.978681 Z M311.668543,187.001167 C242.816652,187.001167 187.001167,242.816652 187.001167,311.668543 C187.001167,380.520433 242.816652,436.335918 311.668543,436.335918 C380.520433,436.335918 436.335918,380.520433 436.335918,311.668543 C436.335918,278.604699 423.201357,246.895064 399.821689,223.515396 C376.442021,200.135728 344.732386,187.001167 311.668543,187.001167 Z M311.668543,374.00223 C277.242598,374.00223 249.334855,346.094488 249.334855,311.668543 C249.334855,277.242598 277.242598,249.334855 311.668543,249.334855 C346.094488,249.334855 374.00223,277.242598 374.00223,311.668543 C374.00223,346.094488 346.094488,374.00223 311.668543,374.00223 Z" />
</svg>
