<?xml version="1.0" encoding="utf-8"?>
<svg version="1.1" id="Слой_1" xmlns="http://www.w3.org/2000/svg" x="0px" y="0px"
     width="18px" height="18px" viewBox="0 0 18 18" style="enable-background:new 0 0 18 18;" xml:space="preserve">
<g id="Group-19" transform="translate(955.000000, 69.000000)">
	<g id="Icon_x2F_20x20_x2F_Repeat" transform="translate(36.000000, 0.000000)">
		<path id="Shape-18" class="st0" fill-opacity="0.8" d="M-982-69c-2.3,0-4.5,0.9-6.2,2.5v-1.6c0-0.5-0.4-0.9-0.9-0.9c-0.5,0-0.9,0.4-0.9,0.9v4
			c0,0.5,0.4,0.9,0.9,0.9h4c0.5,0,0.9-0.4,0.9-0.9c0-0.5-0.4-0.9-0.9-0.9h-2.2c2.4-2.5,6.2-2.9,9.1-1.1c2.9,1.9,4.1,5.5,2.8,8.7
			c-1.3,3.2-4.7,5-8.1,4.4c-3.4-0.7-5.8-3.6-5.8-7.1c0-0.5-0.4-0.9-0.9-0.9c-0.5,0-0.9,0.4-0.9,0.9c0,5,4,9,9,9s9-4,9-9
			S-977-69-982-69z"/>
	</g>
</g>
</svg>
