<svg
        xmlns="http://www.w3.org/2000/svg"
        id="svg76"
        version="1.1"
        class="svg-icon eye-icon"
        viewBox="0 0 20 20"
        height="20"
        width="20">
  <g
     id="g74">
    <path
       id="path72"
       d="m11.008 13.95c8.308e-4 0.016716 0.0012511 0.033539 0.0012511 0.050461v2c0 0.55228-0.44772 1-1 1-0.55228 0-1-0.44772-1-1v-2c0-0.016331 3.9147e-4 -0.03257 0.0011655-0.04871-0.30185-0.029832-0.6002-0.073165-0.89437-0.12944-0.001398 0.0048271-0.0028341 0.009652-0.0043084 0.014474l-0.58474 1.9126c-0.16147 0.52815-0.72052 0.82541-1.2487 0.66393-0.52815-0.16147-0.82541-0.72052-0.66393-1.2487l0.58474-1.9126c-0.39253-0.16233-0.77338-0.34824-1.1402-0.55688l-0.96504 1.6061c-0.28445 0.4734-0.8988 0.62658-1.3722 0.34213-0.4734-0.28445-0.62658-0.8988-0.34213-1.3722l1.0301-1.7143c0.0045514-0.0075749 0.0091873-0.015068 0.013906-0.022478-0.24386-0.21274-0.4775-0.43735-0.70001-0.67306l-1.0033 1.036c-0.38414 0.39702-1.0173 0.40777-1.4147 0.024016l-6.8742e-4 -6.645e-4c-0.39653-0.38366-0.40697-1.0161-0.023306-1.4127l1.21-1.2494c-0.45896-0.74193-0.82504-1.5515-1.0805-2.4142-0.15683-0.52955 0.14531-1.086 0.67486-1.2428 0.52955-0.15683 1.086 0.14531 1.2428 0.67486 0.99756 3.3683 4.1047 5.724 7.6719 5.724 3.5668 0 6.6737-2.3552 7.6716-5.723 0.1569-0.52953 0.71336-0.8316 1.2429-0.6747 0.52953 0.1569 0.8316 0.71336 0.6747 1.2429-0.25561 0.86267-0.62178 1.6721-1.0808 2.414l1.209 1.2484c0.38366 0.39653 0.37323 1.029-0.023306 1.4127l-6.874e-4 6.645e-4c-0.39739 0.38376-1.0305 0.37301-1.4147-0.024016l-1.0025-1.0352c-0.21883 0.23176-0.44844 0.45279-0.68793 0.66235 0.0069275 0.010607 0.013684 0.021387 0.020265 0.032338l1.0301 1.7143c0.28445 0.4734 0.13127 1.0878-0.34213 1.3722-0.4734 0.28445-1.0878 0.13127-1.3722-0.34213l-0.96954-1.6136c-0.32104 0.18322-0.65283 0.34902-0.99399 0.49627l0.60556 1.9807c0.16147 0.52815-0.13578 1.0872-0.66393 1.2487-0.52815 0.16147-1.0872-0.13578-1.2487-0.66393l-0.59956-1.9611c-0.34327 0.071874-0.69247 0.12607-1.0465 0.16169z"
       fill="rgba(167, 175, 180, 0.8)" />
  </g>
</svg>
