<svg xmlns="http://www.w3.org/2000/svg" width="20" height="20" viewBox="0 0 20 20">
    <g fill="none" fill-rule="evenodd">
        <path fill="#BBC1C5" fill-rule="nonzero" d="M10 0C4.477 0 0 4.477 0 10s4.477 10 10 10 10-4.477 10-10S15.523 0 10 0m0 1.905c4.464 0 8.095 3.631 8.095 8.095S14.464 18.095 10 18.095 1.905 14.464 1.905 10 5.536 1.905 10 1.905"/>
        <path fill="#4A4A4A" d="M14.143 12H9.857C9.384 12 9 11.617 9 11.143V6.857C9 6.383 9.384 6 9.857 6s.857.383.857.857v3.429h3.429c.473 0 .857.383.857.857s-.384.857-.857.857"/>
    </g>
</svg>
