<?xml version="1.0" encoding="UTF-8"?>
<svg width="20px" height="20px" viewBox="0 0 20 20" version="1.1" xmlns="http://www.w3.org/2000/svg">
    <g stroke="none" stroke-width="1" fill="none" fill-rule="evenodd">
        <g id="noun_Upload_2918261" transform="translate(1.000000, 2.000000)">
            <g id="Group">
                <g id="Path">
                    <path d="M14.5615201,2.88243585 C14.4025949,2.88243585 14.2635354,2.88243585 14.1244759,2.9031728 C13.0715965,1.16126912 11.2638225,0.103684743 9.25739206,0.103684743 C6.79405168,0.103684743 4.64856168,1.70042978 3.85393575,4.06444192 C1.76804269,4.12665276 0.099328241,5.91003034 0.099328241,8.08740994 C0.099328241,10.3062634 1.82763963,12.110378 3.95326399,12.110378 L5.04587464,12.110378 C4.9068151,11.6126912 4.92668075,11.0942675 5.12533723,10.6380546 L3.95326399,10.6380546 C2.60239991,10.6380546 1.50978926,9.49752244 1.50978926,8.08740994 C1.50978926,6.67729743 2.60239991,5.53676526 3.95326399,5.53676526 C4.03272658,5.53676526 4.11218918,5.55750221 4.17178612,5.55750221 L4.27111436,5.57823916 C4.62869603,5.61971306 4.96641205,5.39160662 5.04587464,5.01834155 C5.5226502,2.98612059 7.25096159,1.55527114 9.25739206,1.55527114 C10.6281218,1.55527114 11.8796576,2.2188535 12.6941492,3.31791177 C12.0981797,3.60822905 11.5618072,4.04370497 11.124763,4.60360258 C10.8863752,4.91465681 10.9261065,5.39160662 11.2240912,5.64045001 C11.522076,5.88929339 11.9789859,5.84781949 12.2173736,5.51602832 C12.7934774,4.76949817 13.6477003,4.3547592 14.5615201,4.3547592 C16.2103689,4.3547592 17.561233,5.7648717 17.561233,7.48603843 C17.561233,9.20720516 16.2103689,10.6173177 14.5615201,10.6173177 L13.945685,10.6173177 C14.1244759,11.0735305 14.1642072,11.5919542 14.0251476,12.089641 L14.5615201,12.089641 C16.9851292,12.089641 18.971694,10.0159462 18.971694,7.48603843 C18.971694,4.9561307 16.9851292,2.88243585 14.5615201,2.88243585 Z" fill="#08A652" />
                    <path d="M10.0122867,8.17035773 C9.8930928,8.02519909 9.71430197,7.96298824 9.53551113,7.96298824 C9.3567203,7.96298824 9.19779511,8.04593604 9.05873558,8.17035773 L6.53579826,11.0113197 C6.35700742,11.1979522 6.31727613,11.4882695 6.41660437,11.7371129 C6.51593261,11.9859563 6.75432039,12.1311149 6.99270816,12.1311149 L8.10518446,12.1311149 L8.10518446,16.2370307 C8.10518446,16.6102958 8.38330354,16.9006131 8.74088521,16.9006131 L10.3102714,16.9006131 C10.6678531,16.9006131 10.9459722,16.6102958 10.9459722,16.2370307 L10.9459722,12.1311149 L12.0584485,12.1311149 C12.3167019,12.1311149 12.535224,11.9652193 12.6345523,11.7371129 C12.7338805,11.4882695 12.6941492,11.2186892 12.5153584,11.0113197 L10.0122867,8.17035773 Z" fill="#000000" />
                </g>
            </g>
        </g>
    </g>
</svg>
