<svg width="28px" height="28px" viewBox="0 0 28 28" version="1.1" xmlns="http://www.w3.org/2000/svg">
    <g stroke="none" stroke-width="1" fill="none" fill-rule="evenodd">
        <g transform="translate(1.000000, 1.000000)" fill="#BBC1C5" fill-rule="nonzero">
            <path d="M13.0355111,12.9629882 C13.214302,12.9629882 13.3930928,13.0251991 13.5122867,13.1703577 L13.5122867,13.1703577 L16.0153584,16.0113197 C16.1941492,16.2186892 16.2338805,16.4882695 16.1345523,16.7371129 C16.035224,16.9652193 15.8167019,17.1311149 15.5584485,17.1311149 L15.5584485,17.1311149 L14.4459722,17.1311149 L14.4459722,21.2370307 C14.4459722,21.6102958 14.1678531,21.9006131 13.8102714,21.9006131 L13.8102714,21.9006131 L12.2408852,21.9006131 C11.8833035,21.9006131 11.6051845,21.6102958 11.6051845,21.2370307 L11.6051845,21.2370307 L11.6051845,17.1311149 L10.4927082,17.1311149 C10.2543204,17.1311149 10.0159326,16.9859563 9.91660437,16.7371129 C9.81727613,16.4882695 9.85700742,16.1979522 10.0357983,16.0113197 L10.0357983,16.0113197 L12.5587356,13.1703577 C12.6977951,13.045936 12.8567203,12.9629882 13.0355111,12.9629882 Z M12.7573921,5.10368474 C14.7638225,5.10368474 16.5715965,6.16126912 17.6244759,7.9031728 C17.7635354,7.88243585 17.9025949,7.88243585 18.0615201,7.88243585 C20.4851292,7.88243585 22.471694,9.9561307 22.471694,12.4860384 C22.471694,15.0159462 20.4851292,17.089641 18.0615201,17.089641 L18.0615201,17.089641 L17.5251476,17.089641 C17.6642072,16.5919542 17.6244759,16.0735305 17.445685,15.6173177 L17.445685,15.6173177 L18.0615201,15.6173177 C19.7103689,15.6173177 21.061233,14.2072052 21.061233,12.4860384 C21.061233,10.7648717 19.7103689,9.3547592 18.0615201,9.3547592 C17.1477003,9.3547592 16.2934774,9.76949817 15.7173736,10.5160283 C15.4789859,10.8478195 15.022076,10.8892934 14.7240912,10.64045 C14.4261065,10.3916066 14.3863752,9.91465681 14.624763,9.60360258 C15.0618072,9.04370497 15.5981797,8.60822905 16.1941492,8.31791177 C15.3796576,7.2188535 14.1281218,6.55527114 12.7573921,6.55527114 C10.7509616,6.55527114 9.0226502,7.98612059 8.54587464,10.0183415 C8.46641205,10.3916066 8.12869603,10.6197131 7.77111436,10.5782392 L7.77111436,10.5782392 L7.67178612,10.5575022 C7.61218918,10.5575022 7.53272658,10.5367653 7.45326399,10.5367653 C6.10239991,10.5367653 5.00978926,11.6772974 5.00978926,13.0874099 C5.00978926,14.4975224 6.10239991,15.6380546 7.45326399,15.6380546 L7.45326399,15.6380546 L8.62533723,15.6380546 C8.42668075,16.0942675 8.4068151,16.6126912 8.54587464,17.110378 L8.54587464,17.110378 L7.45326399,17.110378 C5.32763963,17.110378 3.59932824,15.3062634 3.59932824,13.0874099 C3.59932824,10.9100303 5.26804269,9.12665276 7.35393575,9.06444192 C8.14856168,6.70042978 10.2940517,5.10368474 12.7573921,5.10368474 Z M22.1939759,3.8060241 C17.1192771,-1.2686747 8.88072289,-1.2686747 3.8060241,3.8060241 C-1.2686747,8.88072289 -1.2686747,17.1192771 3.8060241,22.1939759 C8.88072289,27.2686747 17.1192771,27.2686747 22.1939759,22.1939759 C27.2686747,17.1192771 27.2686747,8.84939759 22.1939759,3.8060241 Z"></path>
        </g>
    </g>
</svg>
