<svg xmlns="http://www.w3.org/2000/svg" width="20" height="20" viewBox="0 0 20 20">
    <g fill="none" fill-rule="evenodd">
        <g fill="#FF890C" fill-rule="nonzero">
            <path d="M10 5c-.552 0-1 .448-1 1v4c0 .552.448 1 1 1s1-.448 1-1V6c0-.552-.448-1-1-1zm.92 8.62c-.022-.064-.052-.124-.09-.18l-.12-.15c-.288-.284-.718-.367-1.09-.21-.121.05-.233.122-.33.21-.187.189-.292.444-.29.71.002.13.029.26.08.38.09.251.289.45.54.54.242.107.518.107.76 0 .251-.09.45-.289.54-.54.051-.12.078-.25.08-.38.005-.067.005-.133 0-.2-.017-.064-.044-.124-.08-.18zM10 0C4.477 0 0 4.477 0 10s4.477 10 10 10 10-4.477 10-10c0-2.652-1.054-5.196-2.929-7.071C15.196 1.054 12.652 0 10 0zm0 18c-4.418 0-8-3.582-8-8s3.582-8 8-8 8 3.582 8 8c0 2.122-.843 4.157-2.343 5.657S12.122 18 10 18z" transform="translate(-248 -71) translate(224 61) translate(24 10)"/>
        </g>
    </g>
</svg>
